<svg width="24" height="24" viewBox="0 0 24 24" fill="none" xmlns="http://www.w3.org/2000/svg">
<path fill-rule="evenodd" clip-rule="evenodd" d="M7.91005 3.23005L3.23005 7.91305V7.90305C3.15602 7.9782 3.09759 8.06725 3.05812 8.16508C3.01865 8.2629 2.99891 8.36756 3.00005 8.47305V15.527C3.00005 15.747 3.08005 15.947 3.23005 16.097L7.90005 20.77C8.05005 20.92 8.26005 21 8.47005 21H15.53C15.75 21 15.95 20.92 16.1 20.77L20.77 16.097C20.8441 16.0219 20.9025 15.9328 20.942 15.835C20.9814 15.7372 21.0012 15.6325 21 15.527V8.47305C21 8.25305 20.92 8.05305 20.77 7.90305L16.1 3.23005C16.0249 3.15602 15.9358 3.09759 15.838 3.05812C15.7402 3.01865 15.6355 2.99891 15.53 3.00005H8.48005C8.26005 3.00005 8.06005 3.08005 7.91005 3.23005ZM12 7.00005C12.2653 7.00005 12.5196 7.1054 12.7072 7.29294C12.8947 7.48048 13 7.73483 13 8.00005V13C13 13.2653 12.8947 13.5196 12.7072 13.7072C12.5196 13.8947 12.2653 14 12 14C11.7348 14 11.4805 13.8947 11.2929 13.7072C11.1054 13.5196 11 13.2653 11 13V8.00005C11 7.73483 11.1054 7.48048 11.2929 7.29294C11.4805 7.1054 11.7348 7.00005 12 7.00005ZM11 16C11 15.7348 11.1054 15.4805 11.2929 15.2929C11.4805 15.1054 11.7348 15 12 15H12.008C12.2733 15 12.5276 15.1054 12.7152 15.2929C12.9027 15.4805 13.008 15.7348 13.008 16C13.008 16.2653 12.9027 16.5196 12.7152 16.7072C12.5276 16.8947 12.2733 17 12.008 17H12C11.7348 17 11.4805 16.8947 11.2929 16.7072C11.1054 16.5196 11 16.2653 11 16Z" fill="#FF3336"/>
</svg>
