<svg width="25" height="25" viewBox="0 0 25 25" fill="none" xmlns="http://www.w3.org/2000/svg">
<path d="M22.1138 10.5356C21.5138 9.53557 20.5138 8.17723 19.1221 6.97932L21.3826 4.71892C21.6878 4.41371 21.6878 3.91888 21.3826 3.61367C21.0774 3.30846 20.5826 3.30846 20.2774 3.61367L14.5138 9.37723L14.5117 9.37825L14.5107 9.37933L3.60965 20.2803C3.30444 20.5855 3.30444 21.0804 3.60965 21.3856C3.76173 21.5377 3.96173 21.6147 4.16173 21.6147C4.36173 21.6147 4.56173 21.5387 4.71381 21.3856L7.12006 18.9793C8.77006 20.0334 10.5753 20.5731 12.4971 20.5731C17.6503 20.5731 20.7326 16.747 22.1128 14.4637C22.8399 13.2522 22.8399 11.7481 22.1138 10.5356ZM15.3617 12.5001C15.3617 14.0803 14.0763 15.3647 12.4971 15.3647C11.9992 15.3647 11.5294 15.2272 11.1107 14.9918L14.9878 11.1147C15.2242 11.5324 15.3617 12.0022 15.3617 12.5001ZM20.7763 13.6585C19.568 15.6574 16.8857 19.0106 12.4992 19.0106C10.9982 19.0106 9.58465 18.599 8.27111 17.8303L9.97421 16.1273C10.7065 16.6429 11.5763 16.9272 12.4961 16.9272C14.9367 16.9272 16.9232 14.9408 16.9232 12.5001C16.9232 11.5803 16.6388 10.7105 16.1232 9.97824L18.0159 8.08558C19.2992 9.16683 20.2232 10.421 20.7742 11.3387C21.2024 12.0554 21.2024 12.9449 20.7763 13.6585ZM4.30027 16.4407C3.78152 15.8261 3.30547 15.1616 2.88568 14.4658C2.16068 13.2512 2.16067 11.747 2.88463 10.5366C4.26484 8.25325 7.34715 4.42722 12.5003 4.42722C13.4961 4.42722 14.4586 4.57097 15.443 4.8668C15.8555 4.99076 16.0909 5.4262 15.9659 5.83974C15.8419 6.25328 15.4065 6.48761 14.993 6.36261C14.1565 6.11156 13.3409 5.98972 12.4992 5.98972C8.11381 5.98972 5.43046 9.34284 4.22213 11.3418C3.79609 12.0553 3.7961 12.9449 4.22423 13.6616C4.60027 14.2845 5.02735 14.8814 5.49401 15.4335C5.77214 15.7627 5.73048 16.2564 5.40131 16.5346C5.25444 16.6585 5.07631 16.7189 4.89819 16.7189C4.67527 16.7189 4.45443 16.6241 4.30027 16.4407ZM12.6961 8.78659C12.7617 9.21263 12.4701 9.61157 12.043 9.6772C10.8347 9.86365 9.86173 10.8376 9.67527 12.0449C9.61589 12.4314 9.28361 12.7074 8.90445 12.7074C8.86486 12.7074 8.82422 12.7043 8.78463 12.6981C8.35755 12.6324 8.0659 12.2335 8.13153 11.8075C8.42528 9.90328 9.90237 8.4272 11.8055 8.13345C12.2253 8.06887 12.6294 8.36055 12.6961 8.78659Z" fill="white"/>
</svg>
