<svg width="22" height="22" viewBox="0 0 22 22" fill="none" xmlns="http://www.w3.org/2000/svg">
<path d="M16.7501 4.19232C16.7501 4.19232 18.7501 3.18881 19.9911 4.20484C20.1932 4.3682 20.4453 4.69158 20.556 4.9293C20.7501 5.34611 20.7501 5.7503 20.7501 6.55867V17.5676C20.7501 18.5741 19.7101 19.2654 18.7501 19.0407C17.8304 18.8254 16.816 18.7061 15.7501 18.7061C13.8331 18.7061 12.0827 19.092 10.7501 19.7281C9.41758 20.3641 7.66719 20.7501 5.75012 20.7501C4.6842 20.7501 3.66981 20.6308 2.75012 20.4155C2.15892 20.2771 1.86332 20.2079 1.50911 19.9215C1.30709 19.7581 1.05495 19.4347 0.944238 19.197C0.750122 18.7802 0.750122 18.376 0.750122 17.5676V6.55867C0.750122 5.55219 1.79015 4.8609 2.75012 5.08561C3.52485 5.26696 4.36679 5.38021 5.25012 5.4114" stroke="white" stroke-width="1.5" stroke-linecap="round"/>
<path d="M13.2501 12.25C13.2501 13.6307 12.1308 14.75 10.7501 14.75C9.36941 14.75 8.25012 13.6307 8.25012 12.25C8.25012 10.8693 9.36941 9.75 10.7501 9.75C12.1308 9.75 13.2501 10.8693 13.2501 12.25Z" stroke="white" stroke-width="1.5"/>
<path d="M4.25012 13.25L4.25012 13.259" stroke="white" stroke-width="2" stroke-linecap="round" stroke-linejoin="round"/>
<path d="M17.2501 11.2422L17.2501 11.2512" stroke="white" stroke-width="2" stroke-linecap="round" stroke-linejoin="round"/>
<path d="M8.25012 4.25C8.74165 4.7557 10.0499 6.75 10.7501 6.75M13.2501 4.25C12.7586 4.7557 11.4504 6.75 10.7501 6.75M10.7501 6.75V0.75" stroke="white" stroke-width="1.5" stroke-linecap="round" stroke-linejoin="round"/>
</svg>
