<svg width="20" height="16" viewBox="0 0 20 16" fill="none" xmlns="http://www.w3.org/2000/svg">
<path d="M14.75 0H4.75C2.131 0 0 2.131 0 4.75V10.75C0 13.369 2.131 15.5 4.75 15.5H14.75C17.369 15.5 19.5 13.369 19.5 10.75V4.75C19.5 2.131 17.369 0 14.75 0ZM4.75 1.5H14.75C16.104 1.5 17.265 2.33394 17.753 3.51294L11.553 7.64697C10.458 8.37597 9.042 8.37597 7.948 7.64697L1.74799 3.51294C2.23499 2.33294 3.396 1.5 4.75 1.5ZM14.75 14H4.75C2.958 14 1.5 12.542 1.5 10.75V5.151L7.11499 8.89502C7.91499 9.42802 8.832 9.69495 9.75 9.69495C10.667 9.69495 11.584 9.42802 12.385 8.89502L18 5.151V10.75C18 12.542 16.542 14 14.75 14Z" fill="#41416E"/>
</svg>
