<svg width="24" height="24" viewBox="0 0 24 24" fill="none" xmlns="http://www.w3.org/2000/svg">
<path fill-rule="evenodd" clip-rule="evenodd" d="M15.6796 5.34815C14.8973 5.34735 14.1468 5.65725 13.5931 6.20971C13.0393 6.76216 12.7276 7.51193 12.7266 8.29415C12.7279 9.07636 13.0398 9.82603 13.5938 10.3783C14.1477 10.9306 14.8983 11.2402 15.6806 11.2391C16.4628 11.2402 17.2134 10.9306 17.7673 10.3783C18.3213 9.82603 18.6332 9.07636 18.6346 8.29415C18.634 7.90675 18.5572 7.52324 18.4085 7.16554C18.2597 6.80783 18.042 6.48291 17.7677 6.20935C17.4934 5.93579 17.1679 5.71894 16.8098 5.57117C16.4517 5.42341 16.067 5.34762 15.6796 5.34815ZM14.2276 8.29415C14.2281 8.10373 14.2661 7.91528 14.3395 7.73956C14.4128 7.56384 14.5201 7.40429 14.6551 7.27001C14.7901 7.13574 14.9502 7.02937 15.1264 6.95699C15.3025 6.88461 15.4911 6.84762 15.6816 6.84815C16.4876 6.84815 17.1356 7.49815 17.1356 8.29415C17.1342 8.67854 16.9803 9.04667 16.7077 9.31764C16.435 9.5886 16.066 9.74021 15.6816 9.73915C15.2972 9.74021 14.9281 9.5886 14.6554 9.31764C14.3828 9.04667 14.2289 8.67854 14.2276 8.29415Z" fill="black"/>
<path fill-rule="evenodd" clip-rule="evenodd" d="M9.53015 20.878C9.82019 20.4866 9.97213 20.01 9.96215 19.523C10.3541 19.639 10.7421 19.653 11.1141 19.583C11.8821 19.437 12.4511 18.951 12.7531 18.551L12.7581 18.544L12.7631 18.537C12.9736 18.2501 13.1182 17.9204 13.1866 17.5712C13.2551 17.2221 13.2457 16.8621 13.1591 16.517C13.0853 16.2163 12.9638 15.9293 12.7991 15.667C12.723 15.5265 12.6318 15.3947 12.5271 15.274L12.5361 15.264L13.0001 14.802C13.3821 14.985 13.7961 15.1 14.1581 15.175C14.6595 15.2776 15.1695 15.3318 15.6811 15.337C19.5821 15.337 22.7501 12.187 22.7501 8.293C22.7501 4.401 19.5821 1.25 15.6801 1.25C11.7801 1.25 8.61115 4.4 8.61115 8.293C8.61491 9.20152 8.80908 10.0992 9.18115 10.928L1.92515 18.154C1.58661 18.4967 1.36057 18.9345 1.27715 19.409C1.17815 20.012 1.34015 20.683 1.92515 21.265L2.80715 22.143L2.84915 22.183C3.1914 22.4696 3.60518 22.6576 4.04615 22.727C4.36021 22.7756 4.68137 22.748 4.98248 22.6463C5.2836 22.5447 5.55582 22.372 5.77615 22.143L6.34215 21.579C6.82987 21.864 7.40451 21.962 7.95915 21.855C8.57815 21.7323 9.13209 21.3904 9.51915 20.892L9.52515 20.885L9.53015 20.878ZM10.1111 8.293C10.1111 5.235 12.6021 2.75 15.6811 2.75C18.7591 2.75 21.2501 5.235 21.2501 8.293C21.2501 11.353 18.7601 13.837 15.6801 13.837C15.4081 13.837 14.9371 13.804 14.4621 13.707C13.9651 13.603 13.5751 13.45 13.3671 13.277C13.2234 13.158 13.0405 13.0969 12.8541 13.1056C12.6677 13.1143 12.4912 13.1922 12.3591 13.324L11.4771 14.202C11.2761 14.402 11.0821 14.63 10.9791 14.893C10.8491 15.226 10.8911 15.546 11.0391 15.813C11.1271 15.97 11.2691 16.12 11.3281 16.183L11.3481 16.204C11.4181 16.281 11.4551 16.331 11.4831 16.387L11.5101 16.44L11.5401 16.482L11.5471 16.492C11.5565 16.5073 11.5705 16.5327 11.5891 16.568C11.6271 16.641 11.6711 16.744 11.6991 16.865C11.7356 16.9994 11.741 17.1404 11.715 17.2773C11.689 17.4141 11.6323 17.5433 11.5491 17.655C11.4091 17.838 11.1421 18.051 10.8351 18.109C10.5771 18.158 10.1571 18.126 9.59715 17.569C9.45656 17.4289 9.26615 17.3502 9.06765 17.3502C8.86914 17.3502 8.67873 17.4289 8.53815 17.569L8.24415 17.861C8.10823 17.9961 8.02919 18.1781 8.02324 18.3696C8.01729 18.5612 8.08488 18.7477 8.21215 18.891C8.22415 18.907 8.24248 18.9337 8.26715 18.971C8.31515 19.046 8.37115 19.151 8.41115 19.271C8.48715 19.496 8.49915 19.737 8.31615 19.997C8.19615 20.152 7.95315 20.329 7.67715 20.381C7.44315 20.426 7.14315 20.393 6.80515 20.056C6.66456 19.9159 6.47415 19.8372 6.27565 19.8372C6.07714 19.8372 5.88673 19.9159 5.74615 20.056L4.71715 21.081C4.55215 21.245 4.40715 21.264 4.26515 21.243C4.11112 21.2147 3.96589 21.1507 3.84115 21.056L2.98415 20.202C2.74515 19.965 2.73615 19.782 2.75715 19.652C2.78933 19.4879 2.86814 19.3365 2.98415 19.216L10.6281 11.603C10.7479 11.4836 10.8236 11.327 10.8426 11.1589C10.8617 10.9908 10.8231 10.8212 10.7331 10.678L10.7311 10.675C10.7017 10.6262 10.6743 10.5761 10.6491 10.525C10.2991 9.8328 10.1149 9.06866 10.1111 8.293ZM8.20115 18.876C8.20115 18.8773 8.20248 18.879 8.20515 18.881L8.20415 18.88L8.20115 18.876Z" fill="black"/>
</svg>
