<svg width="24" height="24" viewBox="0 0 24 24" fill="none" xmlns="http://www.w3.org/2000/svg">
<path d="M17.9982 10.0002C17.9982 9.73497 17.8928 9.48062 17.7053 9.29308C17.5178 9.10554 17.2634 9.00019 16.9982 9.00019H5.40819L7.70819 6.71019C7.89649 6.52188 8.00228 6.26649 8.00228 6.00019C8.00228 5.73388 7.89649 5.47849 7.70819 5.29019C7.51988 5.10188 7.26449 4.99609 6.99819 4.99609C6.73188 4.99609 6.47649 5.10188 6.28819 5.29019L2.28819 9.29019C2.14943 9.43081 2.05543 9.60938 2.01806 9.80337C1.98068 9.99736 2.00161 10.1981 2.07819 10.3802C2.15321 10.5628 2.2806 10.7191 2.44432 10.8295C2.60804 10.9398 2.80076 10.9992 2.99819 11.0002H16.9982C17.2634 11.0002 17.5178 10.8948 17.7053 10.7073C17.8928 10.5198 17.9982 10.2654 17.9982 10.0002ZM21.9182 13.6202C21.8432 13.4376 21.7158 13.2812 21.552 13.1709C21.3883 13.0606 21.1956 13.0012 20.9982 13.0002H6.99819C6.73297 13.0002 6.47862 13.1055 6.29108 13.2931C6.10354 13.4806 5.99819 13.735 5.99819 14.0002C5.99819 14.2654 6.10354 14.5198 6.29108 14.7073C6.47862 14.8948 6.73297 15.0002 6.99819 15.0002H18.5882L16.2882 17.2902C16.1945 17.3831 16.1201 17.4937 16.0693 17.6156C16.0185 17.7375 15.9924 17.8682 15.9924 18.0002C15.9924 18.1322 16.0185 18.2629 16.0693 18.3848C16.1201 18.5066 16.1945 18.6172 16.2882 18.7102C16.3812 18.8039 16.4917 18.8783 16.6136 18.9291C16.7355 18.9798 16.8662 19.006 16.9982 19.006C17.1302 19.006 17.2609 18.9798 17.3828 18.9291C17.5046 18.8783 17.6152 18.8039 17.7082 18.7102L21.7082 14.7102C21.8469 14.5696 21.9409 14.391 21.9783 14.197C22.0157 14.003 21.9948 13.8023 21.9182 13.6202Z" fill="black"/>
</svg>
