<svg width="44" height="40" viewBox="0 0 44 40" fill="none" xmlns="http://www.w3.org/2000/svg">
<rect width="44" height="40" rx="6" fill="#EFF5F2"/>
<path d="M16.2509 15C16.2509 13.475 16.8567 12.0125 17.9351 10.9341C19.0134 9.8558 20.4759 9.25 22.0009 9.25C23.5259 9.25 24.9885 9.8558 26.0668 10.9341C27.1451 12.0125 27.7509 13.475 27.7509 15C27.7509 16.525 27.1451 17.9875 26.0668 19.0659C24.9885 20.1442 23.5259 20.75 22.0009 20.75C20.4759 20.75 19.0134 20.1442 17.9351 19.0659C16.8567 17.9875 16.2509 16.525 16.2509 15ZM21.7989 22.261C21.842 22.2545 21.8854 22.2508 21.9289 22.25H22.0729C22.1169 22.25 22.1603 22.2537 22.2029 22.261L29.4979 23.544L29.5359 23.552C30.8799 23.862 32.3239 24.715 32.6049 26.372L32.6089 26.401L32.7229 27.278V27.28C32.9869 29.289 31.3939 30.75 29.5129 30.75C29.4714 30.7492 29.43 30.7459 29.3889 30.74H14.4889C12.6079 30.74 11.0139 29.278 11.2789 27.268L11.3929 26.399L11.3979 26.369C11.6779 24.742 13.1339 23.841 14.4749 23.55L14.5039 23.544L21.7989 22.261Z" fill="#72A78B"/>
</svg>
