<svg width="43" height="43" viewBox="0 0 43 43" fill="none" xmlns="http://www.w3.org/2000/svg">
<path d="M21.4809 2.6875C22.2549 2.6875 22.9536 2.93296 23.527 3.45792C24.077 3.95958 24.4533 4.66729 24.7202 5.48788C25.247 7.11471 25.4369 9.50121 25.4369 12.6187V15.1629L36.1994 21.9891L36.2406 22.0178C37.3228 22.7936 37.6346 24.0227 37.6023 25.0833L37.6041 28.6667C37.6041 28.8131 37.5681 28.9573 37.4995 29.0866C37.4308 29.2159 37.3315 29.3265 37.2102 29.4085C37.0889 29.4905 36.9493 29.5416 36.8037 29.5572C36.6581 29.5728 36.5109 29.5525 36.375 29.498L24.8976 24.8934L24.4067 32.603L28.1763 34.744L28.205 34.7583C28.8912 35.1812 29.2388 35.9641 29.2388 36.6915C29.2389 36.7517 29.2329 36.8117 29.2209 36.8707L28.6601 39.5976C28.6342 39.7215 28.5824 39.8384 28.5082 39.9409C28.434 40.0433 28.339 40.129 28.2294 40.1922C28.1198 40.2554 27.9981 40.2949 27.8723 40.3079C27.7465 40.3209 27.6193 40.3072 27.4991 40.2677L21.4791 38.2557L15.4824 40.2677C15.3622 40.3078 15.2349 40.3219 15.1089 40.3092C14.9828 40.2964 14.8609 40.2571 14.7512 40.1938C14.6415 40.1304 14.5464 40.0446 14.4723 39.9418C14.3983 39.839 14.3468 39.7217 14.3214 39.5976L13.7606 36.8707C13.7486 36.8117 13.7426 36.7517 13.7427 36.6915C13.7427 35.9641 14.0903 35.1812 14.7783 34.7583L14.8033 34.744L18.5748 32.603L18.0821 24.8952L6.60647 29.498C6.47064 29.5521 6.32364 29.5721 6.17829 29.5563C6.03293 29.5406 5.89366 29.4894 5.77261 29.4074C5.65156 29.3254 5.55242 29.2151 5.48384 29.0859C5.41526 28.9568 5.37933 28.8129 5.37918 28.6667V25.0833C5.34693 24.0227 5.65868 22.7936 6.74085 22.0196L6.78205 21.9891L17.5446 15.1629V12.6205C17.5446 9.50121 17.7309 7.1165 18.2523 5.48967C18.5157 4.66908 18.8883 3.96317 19.4366 3.45971C20.0099 2.93296 20.7087 2.68929 21.4809 2.6875Z" fill="#73A88C"/>
</svg>
