<svg width="36" height="36" viewBox="0 0 36 36" fill="none" xmlns="http://www.w3.org/2000/svg">
<path fill-rule="evenodd" clip-rule="evenodd" d="M5.27715 25.5005L15.8642 7.82601C16.0871 7.45877 16.4009 7.15515 16.7753 6.94444C17.1497 6.73374 17.572 6.62305 18.0017 6.62305C18.4313 6.62305 18.8536 6.73374 19.228 6.94444C19.6024 7.15515 19.9162 7.45877 20.1392 7.82601L30.7262 25.5005C30.9443 25.8786 31.0597 26.3071 31.0608 26.7436C31.062 27.1801 30.9488 27.6092 30.7327 27.9884C30.5166 28.3676 30.2049 28.6836 29.8288 28.9051C29.4526 29.1265 29.0251 29.2456 28.5887 29.2505H7.41465C6.97803 29.246 6.55021 29.1272 6.17381 28.9059C5.79741 28.6846 5.48556 28.3685 5.26933 27.9892C5.05311 27.6098 4.94005 27.1804 4.94142 26.7438C4.94279 26.3072 5.05855 25.8785 5.27715 25.5005ZM18.0017 13.5005C18.3995 13.5005 18.781 13.6585 19.0623 13.9399C19.3436 14.2212 19.5017 14.6027 19.5017 15.0005V19.5005C19.5017 19.8983 19.3436 20.2799 19.0623 20.5612C18.781 20.8425 18.3995 21.0005 18.0017 21.0005C17.6038 21.0005 17.2223 20.8425 16.941 20.5612C16.6597 20.2799 16.5017 19.8983 16.5017 19.5005V15.0005C16.5017 14.6027 16.6597 14.2212 16.941 13.9399C17.2223 13.6585 17.6038 13.5005 18.0017 13.5005ZM16.5017 24.0005C16.5017 23.6027 16.6597 23.2212 16.941 22.9399C17.2223 22.6586 17.6038 22.5005 18.0017 22.5005H18.0137C18.4115 22.5005 18.793 22.6586 19.0743 22.9399C19.3556 23.2212 19.5137 23.6027 19.5137 24.0005C19.5137 24.3983 19.3556 24.7799 19.0743 25.0612C18.793 25.3425 18.4115 25.5005 18.0137 25.5005H18.0017C17.6038 25.5005 17.2223 25.3425 16.941 25.0612C16.6597 24.7799 16.5017 24.3983 16.5017 24.0005Z" fill="#FFAB10"/>
</svg>
