<svg width="20" height="19" viewBox="0 0 20 19" fill="none" xmlns="http://www.w3.org/2000/svg">
<path fill-rule="evenodd" clip-rule="evenodd" d="M17.1102 9.0796C17.2272 9.19093 17.293 9.34184 17.293 9.49919C17.293 9.65653 17.2272 9.80744 17.1102 9.91877L12.1102 14.6688C12.053 14.7271 11.984 14.7739 11.9073 14.8063C11.8306 14.8388 11.7479 14.8562 11.664 14.8577C11.58 14.8591 11.4967 14.8444 11.4189 14.8145C11.341 14.7847 11.2703 14.7402 11.211 14.6838C11.1516 14.6275 11.1049 14.5603 11.0734 14.4864C11.042 14.4124 11.0265 14.3332 11.028 14.2535C11.0295 14.1738 11.0479 14.0952 11.082 14.0223C11.1162 13.9495 11.1654 13.884 11.2269 13.8296L15.1602 10.0929L3.33519 10.0929C3.16943 10.0929 3.01045 10.0304 2.89324 9.91903C2.77603 9.80768 2.71019 9.65666 2.71019 9.49919C2.71019 9.34171 2.77603 9.19069 2.89324 9.07934C3.01045 8.96799 3.16943 8.90544 3.33519 8.90544L15.1602 8.90544L11.2269 5.16877C11.1654 5.11441 11.1162 5.04886 11.082 4.97603C11.0479 4.9032 11.0295 4.82457 11.028 4.74485C11.0265 4.66513 11.042 4.58594 11.0734 4.512C11.1049 4.43807 11.1516 4.37091 11.211 4.31453C11.2703 4.25815 11.341 4.2137 11.4189 4.18384C11.4967 4.15398 11.58 4.13931 11.664 4.14072C11.7479 4.14212 11.8306 4.15957 11.9073 4.19203C11.984 4.22448 12.053 4.27127 12.1102 4.3296L17.1102 9.0796Z" fill="#0069CC"/>
</svg>
