<svg width="24" height="24" viewBox="0 0 24 24" fill="none" xmlns="http://www.w3.org/2000/svg">
<path fill-rule="evenodd" clip-rule="evenodd" d="M20.5297 11.4692C20.6701 11.6098 20.749 11.8004 20.749 11.9992C20.749 12.1979 20.6701 12.3886 20.5297 12.5292L14.5297 18.5292C14.461 18.6029 14.3782 18.662 14.2862 18.703C14.1942 18.744 14.0949 18.766 13.9942 18.7678C13.8935 18.7695 13.7935 18.751 13.7001 18.7133C13.6067 18.6756 13.5219 18.6194 13.4506 18.5482C13.3794 18.477 13.3233 18.3922 13.2856 18.2988C13.2478 18.2054 13.2293 18.1054 13.2311 18.0047C13.2329 17.904 13.2549 17.8046 13.2959 17.7126C13.3369 17.6206 13.396 17.5378 13.4697 17.4692L18.1897 12.7492L3.99968 12.7492C3.80077 12.7492 3.61001 12.6702 3.46935 12.5295C3.3287 12.3889 3.24968 12.1981 3.24968 11.9992C3.24968 11.8003 3.3287 11.6095 3.46935 11.4688C3.61001 11.3282 3.80077 11.2492 3.99968 11.2492L18.1897 11.2492L13.4697 6.52918C13.396 6.46052 13.3369 6.37772 13.2959 6.28572C13.2549 6.19372 13.2329 6.0944 13.2311 5.9937C13.2293 5.893 13.2478 5.79297 13.2856 5.69958C13.3233 5.60619 13.3794 5.52136 13.4506 5.45014C13.5219 5.37892 13.6067 5.32278 13.7001 5.28505C13.7935 5.24733 13.8935 5.22881 13.9942 5.23059C14.0949 5.23236 14.1942 5.2544 14.2862 5.2954C14.3782 5.33639 14.461 5.39549 14.5297 5.46918L20.5297 11.4692Z" fill="black"/>
</svg>
