<svg width="44" height="40" viewBox="0 0 44 40" fill="none" xmlns="http://www.w3.org/2000/svg">
<rect width="44" height="40" rx="6" fill="#EFF5F2"/>
<path d="M36.5312 29.6876C36.5312 29.9445 36.4292 30.191 36.2475 30.3726C36.0658 30.5543 35.8194 30.6564 35.5625 30.6564H8.4375C8.18057 30.6564 7.93417 30.5543 7.75249 30.3726C7.57081 30.191 7.46875 29.9445 7.46875 29.6876C7.46875 29.4307 7.57081 29.1843 7.75249 29.0026C7.93417 28.8209 8.18057 28.7189 8.4375 28.7189H35.5625C35.8194 28.7189 36.0658 28.8209 36.2475 29.0026C36.4292 29.1843 36.5312 29.4307 36.5312 29.6876ZM8.47383 16.3891C8.41621 16.1859 8.42655 15.9695 8.50328 15.7728C8.58001 15.576 8.71892 15.4098 8.89887 15.2993L21.4926 7.54926C21.6452 7.45543 21.8209 7.40576 22 7.40576C22.1791 7.40576 22.3548 7.45543 22.5074 7.54926L35.1011 15.2993C35.2811 15.4096 35.4202 15.5758 35.497 15.7725C35.5739 15.9691 35.5844 16.1855 35.5269 16.3887C35.4695 16.5919 35.3472 16.7707 35.1788 16.898C35.0103 17.0253 34.8049 17.0941 34.5938 17.0939H31.6875V24.8439H33.625C33.8819 24.8439 34.1283 24.9459 34.31 25.1276C34.4917 25.3093 34.5938 25.5557 34.5938 25.8126C34.5938 26.0695 34.4917 26.316 34.31 26.4976C34.1283 26.6793 33.8819 26.7814 33.625 26.7814H10.375C10.1181 26.7814 9.87167 26.6793 9.68999 26.4976C9.50831 26.316 9.40625 26.0695 9.40625 25.8126C9.40625 25.5557 9.50831 25.3093 9.68999 25.1276C9.87167 24.9459 10.1181 24.8439 10.375 24.8439H12.3125V17.0939H9.40625C9.19529 17.0939 8.99007 17.0251 8.82178 16.8979C8.65349 16.7707 8.53131 16.5921 8.47383 16.3891ZM23.9375 23.8751C23.9375 24.132 24.0396 24.3785 24.2212 24.5601C24.4029 24.7418 24.6493 24.8439 24.9062 24.8439C25.1632 24.8439 25.4096 24.7418 25.5913 24.5601C25.7729 24.3785 25.875 24.132 25.875 23.8751V18.0626C25.875 17.8057 25.7729 17.5593 25.5913 17.3776C25.4096 17.1959 25.1632 17.0939 24.9062 17.0939C24.6493 17.0939 24.4029 17.1959 24.2212 17.3776C24.0396 17.5593 23.9375 17.8057 23.9375 18.0626V23.8751ZM18.125 23.8751C18.125 24.132 18.2271 24.3785 18.4087 24.5601C18.5904 24.7418 18.8368 24.8439 19.0938 24.8439C19.3507 24.8439 19.5971 24.7418 19.7788 24.5601C19.9604 24.3785 20.0625 24.132 20.0625 23.8751V18.0626C20.0625 17.8057 19.9604 17.5593 19.7788 17.3776C19.5971 17.1959 19.3507 17.0939 19.0938 17.0939C18.8368 17.0939 18.5904 17.1959 18.4087 17.3776C18.2271 17.5593 18.125 17.8057 18.125 18.0626V23.8751Z" fill="#72A78B"/>
</svg>
