<svg width="16" height="16" viewBox="0 0 16 16" fill="none" xmlns="http://www.w3.org/2000/svg">
<path opacity="0.2" d="M14.5 6H1.5L8 2L14.5 6Z" fill="black"/>
<path d="M1.5 6.50018H3V10.5002H2C1.86739 10.5002 1.74021 10.5529 1.64645 10.6466C1.55268 10.7404 1.5 10.8676 1.5 11.0002C1.5 11.1328 1.55268 11.26 1.64645 11.3537C1.74021 11.4475 1.86739 11.5002 2 11.5002H14C14.1326 11.5002 14.2598 11.4475 14.3536 11.3537C14.4473 11.26 14.5 11.1328 14.5 11.0002C14.5 10.8676 14.4473 10.7404 14.3536 10.6466C14.2598 10.5529 14.1326 10.5002 14 10.5002H13V6.50018H14.5C14.6088 6.50007 14.7146 6.46448 14.8013 6.39881C14.888 6.33314 14.951 6.24097 14.9806 6.13629C15.0102 6.03161 15.0049 5.92013 14.9654 5.81875C14.9259 5.71738 14.8545 5.63164 14.7619 5.57455L8.26188 1.57455C8.18311 1.52613 8.09246 1.50049 8 1.50049C7.90754 1.50049 7.81689 1.52613 7.73812 1.57455L1.23812 5.57455C1.14552 5.63164 1.07406 5.71738 1.03458 5.81875C0.995107 5.92013 0.989773 6.03161 1.01939 6.13629C1.04901 6.24097 1.11195 6.33314 1.19869 6.39881C1.28542 6.46448 1.39121 6.50007 1.5 6.50018ZM4 6.50018H6V10.5002H4V6.50018ZM9 6.50018V10.5002H7V6.50018H9ZM12 10.5002H10V6.50018H12V10.5002ZM8 2.58705L12.7338 5.50018H3.26625L8 2.58705ZM15.5 13.0002C15.5 13.1328 15.4473 13.26 15.3536 13.3537C15.2598 13.4475 15.1326 13.5002 15 13.5002H1C0.867392 13.5002 0.740215 13.4475 0.646447 13.3537C0.552678 13.26 0.5 13.1328 0.5 13.0002C0.5 12.8676 0.552678 12.7404 0.646447 12.6466C0.740215 12.5529 0.867392 12.5002 1 12.5002H15C15.1326 12.5002 15.2598 12.5529 15.3536 12.6466C15.4473 12.7404 15.5 12.8676 15.5 13.0002Z" fill="black"/>
</svg>
