<svg width="28" height="28" viewBox="0 0 28 28" fill="none" xmlns="http://www.w3.org/2000/svg">
<path fill-rule="evenodd" clip-rule="evenodd" d="M8.4525 2.3335H19.5475C20.8997 2.3335 21.5752 2.3335 22.1212 2.52366C22.6357 2.70651 23.1013 3.00534 23.4819 3.39701C23.8624 3.78869 24.1477 4.26269 24.3157 4.78233C24.5 5.34466 24.5 6.04 24.5 7.43183V23.7698C24.5 24.7708 23.3508 25.3028 22.624 24.6378C22.4201 24.4494 22.1526 24.3448 21.875 24.3448C21.5974 24.3448 21.3299 24.4494 21.126 24.6378L20.5625 25.1535C20.2053 25.4839 19.7366 25.6673 19.25 25.6673C18.7634 25.6673 18.2947 25.4839 17.9375 25.1535C17.5803 24.8231 17.1116 24.6397 16.625 24.6397C16.1384 24.6397 15.6697 24.8231 15.3125 25.1535C14.9553 25.4839 14.4866 25.6673 14 25.6673C13.5134 25.6673 13.0447 25.4839 12.6875 25.1535C12.3303 24.8231 11.8616 24.6397 11.375 24.6397C10.8884 24.6397 10.4197 24.8231 10.0625 25.1535C9.70526 25.4839 9.23658 25.6673 8.75 25.6673C8.26342 25.6673 7.79474 25.4839 7.4375 25.1535L6.874 24.6378C6.67008 24.4494 6.40264 24.3448 6.125 24.3448C5.84736 24.3448 5.57992 24.4494 5.376 24.6378C4.64917 25.3028 3.5 24.7708 3.5 23.7698V7.43183C3.5 6.04 3.5 5.3435 3.68433 4.7835C4.03433 3.71833 4.84517 2.883 5.87883 2.52366C6.42483 2.3335 7.10033 2.3335 8.4525 2.3335ZM8.16667 7.87516C7.9346 7.87516 7.71204 7.96735 7.54795 8.13144C7.38385 8.29554 7.29167 8.5181 7.29167 8.75016C7.29167 8.98223 7.38385 9.20479 7.54795 9.36888C7.71204 9.53297 7.9346 9.62516 8.16667 9.62516H8.75C8.98206 9.62516 9.20462 9.53297 9.36872 9.36888C9.53281 9.20479 9.625 8.98223 9.625 8.75016C9.625 8.5181 9.53281 8.29554 9.36872 8.13144C9.20462 7.96735 8.98206 7.87516 8.75 7.87516H8.16667ZM12.25 7.87516C12.0179 7.87516 11.7954 7.96735 11.6313 8.13144C11.4672 8.29554 11.375 8.5181 11.375 8.75016C11.375 8.98223 11.4672 9.20479 11.6313 9.36888C11.7954 9.53297 12.0179 9.62516 12.25 9.62516H19.8333C20.0654 9.62516 20.288 9.53297 20.4521 9.36888C20.6161 9.20479 20.7083 8.98223 20.7083 8.75016C20.7083 8.5181 20.6161 8.29554 20.4521 8.13144C20.288 7.96735 20.0654 7.87516 19.8333 7.87516H12.25ZM8.16667 11.9585C7.9346 11.9585 7.71204 12.0507 7.54795 12.2148C7.38385 12.3789 7.29167 12.6014 7.29167 12.8335C7.29167 13.0656 7.38385 13.2881 7.54795 13.4522C7.71204 13.6163 7.9346 13.7085 8.16667 13.7085H8.75C8.98206 13.7085 9.20462 13.6163 9.36872 13.4522C9.53281 13.2881 9.625 13.0656 9.625 12.8335C9.625 12.6014 9.53281 12.3789 9.36872 12.2148C9.20462 12.0507 8.98206 11.9585 8.75 11.9585H8.16667ZM12.25 11.9585C12.0179 11.9585 11.7954 12.0507 11.6313 12.2148C11.4672 12.3789 11.375 12.6014 11.375 12.8335C11.375 13.0656 11.4672 13.2881 11.6313 13.4522C11.7954 13.6163 12.0179 13.7085 12.25 13.7085H19.8333C20.0654 13.7085 20.288 13.6163 20.4521 13.4522C20.6161 13.2881 20.7083 13.0656 20.7083 12.8335C20.7083 12.6014 20.6161 12.3789 20.4521 12.2148C20.288 12.0507 20.0654 11.9585 19.8333 11.9585H12.25ZM8.16667 16.0418C7.9346 16.0418 7.71204 16.134 7.54795 16.2981C7.38385 16.4622 7.29167 16.6848 7.29167 16.9168C7.29167 17.1489 7.38385 17.3715 7.54795 17.5355C7.71204 17.6996 7.9346 17.7918 8.16667 17.7918H8.75C8.98206 17.7918 9.20462 17.6996 9.36872 17.5355C9.53281 17.3715 9.625 17.1489 9.625 16.9168C9.625 16.6848 9.53281 16.4622 9.36872 16.2981C9.20462 16.134 8.98206 16.0418 8.75 16.0418H8.16667ZM12.25 16.0418C12.0179 16.0418 11.7954 16.134 11.6313 16.2981C11.4672 16.4622 11.375 16.6848 11.375 16.9168C11.375 17.1489 11.4672 17.3715 11.6313 17.5355C11.7954 17.6996 12.0179 17.7918 12.25 17.7918H19.8333C20.0654 17.7918 20.288 17.6996 20.4521 17.5355C20.6161 17.3715 20.7083 17.1489 20.7083 16.9168C20.7083 16.6848 20.6161 16.4622 20.4521 16.2981C20.288 16.134 20.0654 16.0418 19.8333 16.0418H12.25Z" fill="white"/>
</svg>
