<svg width="43" height="43" viewBox="0 0 43 43" fill="none" xmlns="http://www.w3.org/2000/svg">
<path fill-rule="evenodd" clip-rule="evenodd" d="M30.4577 3.58301C31.8832 3.58301 33.2504 4.1493 34.2584 5.15731C35.2664 6.16532 35.8327 7.53247 35.8327 8.95801V37.6247C35.8325 37.9621 35.737 38.2927 35.5572 38.5782C35.3774 38.8638 35.1206 39.0927 34.8163 39.2388C34.5121 39.3848 34.1728 39.4419 33.8376 39.4036C33.5023 39.3653 33.1847 39.2331 32.9212 39.0222L29.5619 36.3347L26.2025 39.0222C25.8583 39.2979 25.4246 39.437 24.9842 39.4129C24.5439 39.3887 24.1279 39.203 23.816 38.8914L21.4994 36.5747L19.1827 38.8914C18.871 39.2033 18.4551 39.3893 18.0148 39.4138C17.5745 39.4382 17.1406 39.2994 16.7962 39.024L13.4368 36.3347L10.0775 39.0222C9.81405 39.2331 9.49642 39.3653 9.16114 39.4036C8.82587 39.4419 8.4866 39.3848 8.18237 39.2388C7.87815 39.0927 7.62135 38.8638 7.44154 38.5782C7.26173 38.2927 7.16623 37.9621 7.16602 37.6247V8.95801C7.16602 7.53247 7.73231 6.16532 8.74032 5.15731C9.74833 4.1493 11.1155 3.58301 12.541 3.58301H30.4577ZM21.4994 21.4997H16.1243C15.6492 21.4997 15.1935 21.6884 14.8575 22.0244C14.5214 22.3604 14.3327 22.8162 14.3327 23.2913C14.3327 23.7665 14.5214 24.2222 14.8575 24.5582C15.1935 24.8942 15.6492 25.083 16.1243 25.083H21.4994C21.9745 25.083 22.4302 24.8942 22.7662 24.5582C23.1023 24.2222 23.291 23.7665 23.291 23.2913C23.291 22.8162 23.1023 22.3604 22.7662 22.0244C22.4302 21.6884 21.9745 21.4997 21.4994 21.4997ZM26.8744 14.333H16.1243C15.6677 14.3335 15.2285 14.5084 14.8964 14.8219C14.5643 15.1353 14.3645 15.5638 14.3377 16.0197C14.311 16.4755 14.4593 16.9244 14.7524 17.2746C15.0455 17.6248 15.4613 17.8499 15.9147 17.9038L16.1243 17.9163H26.8744C27.331 17.9158 27.7702 17.741 28.1023 17.4275C28.4344 17.114 28.6342 16.6855 28.661 16.2297C28.6877 15.7738 28.5394 15.3249 28.2463 14.9747C27.9532 14.6245 27.5374 14.3995 27.084 14.3455L26.8744 14.333Z" fill="#72A78B"/>
</svg>
