<svg width="36" height="36" viewBox="0 0 36 36" fill="none" xmlns="http://www.w3.org/2000/svg">
<path fill-rule="evenodd" clip-rule="evenodd" d="M25.5 3C26.6935 3 27.8381 3.47411 28.682 4.31802C29.5259 5.16193 30 6.30653 30 7.5V31.5C29.9998 31.7825 29.9199 32.0592 29.7693 32.2983C29.6188 32.5374 29.4038 32.7291 29.1491 32.8513C28.8944 32.9736 28.6104 33.0214 28.3297 32.9894C28.049 32.9573 27.783 32.8466 27.5625 32.67L24.75 30.42L21.9375 32.67C21.6494 32.9008 21.2862 33.0173 20.9176 32.9971C20.5489 32.9769 20.2007 32.8214 19.9395 32.5605L18 30.621L16.0605 32.5605C15.7995 32.8217 15.4514 32.9774 15.0827 32.9979C14.7141 33.0183 14.3508 32.9021 14.0625 32.6715L11.25 30.42L8.4375 32.67C8.21696 32.8466 7.95103 32.9573 7.67034 32.9894C7.38965 33.0214 7.1056 32.9736 6.8509 32.8513C6.59621 32.7291 6.38121 32.5374 6.23067 32.2983C6.08014 32.0592 6.00018 31.7825 6 31.5V7.5C6 6.30653 6.47411 5.16193 7.31802 4.31802C8.16193 3.47411 9.30653 3 10.5 3H25.5ZM18 18H13.5C13.1022 18 12.7206 18.158 12.4393 18.4393C12.158 18.7206 12 19.1022 12 19.5C12 19.8978 12.158 20.2794 12.4393 20.5607C12.7206 20.842 13.1022 21 13.5 21H18C18.3978 21 18.7794 20.842 19.0607 20.5607C19.342 20.2794 19.5 19.8978 19.5 19.5C19.5 19.1022 19.342 18.7206 19.0607 18.4393C18.7794 18.158 18.3978 18 18 18ZM22.5 12H13.5C13.1177 12.0004 12.75 12.1468 12.4719 12.4093C12.1939 12.6717 12.0266 13.0304 12.0042 13.4121C11.9818 13.7938 12.106 14.1696 12.3514 14.4627C12.5968 14.7559 12.9449 14.9443 13.3245 14.9895L13.5 15H22.5C22.8823 14.9996 23.25 14.8532 23.5281 14.5907C23.8061 14.3283 23.9734 13.9696 23.9958 13.5879C24.0182 13.2062 23.894 12.8304 23.6486 12.5373C23.4032 12.2441 23.0551 12.0557 22.6755 12.0105L22.5 12Z" fill="#72A78B"/>
</svg>
