<svg width="16" height="16" viewBox="0 0 16 16" fill="none" xmlns="http://www.w3.org/2000/svg">
<path d="M13.9987 5.00065L11.332 6.33398M11.332 6.33398L10.9987 6.50065L7.9987 8.00065M11.332 6.33398V8.66732M11.332 6.33398L4.9987 3.00065M7.9987 8.00065L1.9987 5.00065M7.9987 8.00065V14.334M10.384 2.25532L11.7174 2.95532C13.1514 3.70798 13.8687 4.08398 14.2674 4.76065C14.6654 5.43665 14.6654 6.27865 14.6654 7.96198V8.03998C14.6654 9.72265 14.6654 10.5647 14.2674 11.2407C13.8687 11.9173 13.1514 12.294 11.7174 13.0467L10.384 13.746C9.21336 14.36 8.62803 14.6673 7.9987 14.6673C7.36936 14.6673 6.78403 14.3607 5.61336 13.746L4.28003 13.046C2.84603 12.2933 2.1287 11.9173 1.73003 11.2407C1.33203 10.5647 1.33203 9.72265 1.33203 8.04065V7.96265C1.33203 6.27932 1.33203 5.43732 1.73003 4.76132C2.1287 4.08465 2.84603 3.70798 4.28003 2.95598L5.61336 2.25598C6.78403 1.64132 7.36936 1.33398 7.9987 1.33398C8.62803 1.33398 9.21336 1.64065 10.384 2.25532Z" stroke="#429E6E" stroke-width="1.5" stroke-linecap="round"/>
</svg>
