<svg width="24" height="24" viewBox="0 0 24 24" fill="none" xmlns="http://www.w3.org/2000/svg">
<g clip-path="url(#clip0_1_46960)">
<path d="M12 0C9.62663 0 7.30655 0.703788 5.33316 2.02236C3.35977 3.34094 1.8217 5.21509 0.913451 7.4078C0.00519943 9.60051 -0.232441 12.0133 0.230582 14.3411C0.693605 16.6689 1.83649 18.8071 3.51472 20.4853C5.19295 22.1635 7.33115 23.3064 9.65892 23.7694C11.9867 24.2324 14.3995 23.9948 16.5922 23.0866C18.7849 22.1783 20.6591 20.6402 21.9776 18.6668C23.2962 16.6935 24 14.3734 24 12C24 8.8174 22.7357 5.76515 20.4853 3.51472C18.2348 1.26428 15.1826 0 12 0ZM7.89001 10.07L11.39 5.07C11.4619 4.97663 11.5543 4.90101 11.6601 4.84898C11.7659 4.79695 11.8821 4.76989 12 4.76989C12.1179 4.76989 12.2342 4.79695 12.3399 4.84898C12.4457 4.90101 12.5381 4.97663 12.61 5.07L16.11 10.07C16.2199 10.2211 16.2686 10.4081 16.2464 10.5936C16.2241 10.779 16.1325 10.9492 15.99 11.07L12.49 14.07C12.3515 14.191 12.1739 14.2576 11.99 14.2576C11.8061 14.2576 11.6285 14.191 11.49 14.07L7.99001 11.07C7.85052 10.9465 7.76275 10.775 7.74421 10.5896C7.72568 10.4042 7.77774 10.2187 7.89001 10.07ZM16.13 16.72L12.66 19.72C12.4775 19.8803 12.2429 19.9687 12 19.9687C11.7571 19.9687 11.5225 19.8803 11.34 19.72L7.87001 16.72C7.66977 16.545 7.54727 16.2975 7.52945 16.0322C7.51163 15.7668 7.59996 15.5052 7.77501 15.305C7.95005 15.1048 8.19747 14.9823 8.46283 14.9644C8.72819 14.9466 8.98977 15.035 9.19001 15.21L12 17.67L14.81 15.21C15.0102 15.035 15.2718 14.9466 15.5372 14.9644C15.8025 14.9823 16.05 15.1048 16.225 15.305C16.4 15.5052 16.4884 15.7668 16.4706 16.0322C16.4527 16.2975 16.3302 16.545 16.13 16.72Z" fill="white"/>
</g>
<defs>
<clipPath id="clip0_1_46960">
<rect width="24" height="24" fill="white"/>
</clipPath>
</defs>
</svg>
