<svg width="19" height="19" viewBox="0 0 19 19" fill="none" xmlns="http://www.w3.org/2000/svg">
<path d="M9.5 12.6665C10.8117 12.6665 11.875 11.6032 11.875 10.2915C11.875 8.97983 10.8117 7.9165 9.5 7.9165C8.18832 7.9165 7.125 8.97983 7.125 10.2915C7.125 11.6032 8.18832 12.6665 9.5 12.6665Z" stroke="black" stroke-width="1.5"/>
<path d="M7.74352 16.625H11.2617C13.7325 16.625 14.9683 16.625 15.8557 16.0432C16.2388 15.7923 16.5686 15.4684 16.8263 15.09C17.4193 14.2192 17.4193 13.0055 17.4193 10.5799C17.4193 8.1542 17.4193 6.94058 16.8263 6.06975C16.5686 5.69132 16.2388 5.36743 15.8557 5.11658C15.2857 4.74212 14.5716 4.60833 13.4784 4.56083C12.9566 4.56083 12.5078 4.17291 12.4056 3.6702C12.3276 3.30197 12.1248 2.97198 11.8316 2.736C11.5383 2.50001 11.1726 2.37251 10.7962 2.37504H8.20902C7.42685 2.37504 6.75315 2.91733 6.59956 3.6702C6.49744 4.17291 6.04856 4.56083 5.52685 4.56083C4.43435 4.60833 3.72027 4.74291 3.14948 5.11658C2.76674 5.36751 2.4372 5.6914 2.17969 6.06975C1.58594 6.94058 1.58594 8.15341 1.58594 10.5799C1.58594 13.0063 1.58594 14.2184 2.1789 15.09C2.4354 15.4668 2.76473 15.7906 3.14948 16.0432C4.03694 16.625 5.27273 16.625 7.74352 16.625Z" stroke="black" stroke-width="1.5"/>
<path d="M15.0417 7.9165H14.25" stroke="black" stroke-width="1.5" stroke-linecap="round"/>
</svg>
