<svg width="16" height="16" viewBox="0 0 16 16" fill="none" xmlns="http://www.w3.org/2000/svg">
<path d="M5.6026 11.334L8.0026 8.93398L10.4026 11.334L11.3359 10.4007L8.93594 8.00065L11.3359 5.60065L10.4026 4.66732L8.0026 7.06732L5.6026 4.66732L4.66927 5.60065L7.06927 8.00065L4.66927 10.4007L5.6026 11.334ZM8.0026 14.6673C7.08038 14.6673 6.21372 14.4922 5.40261 14.142C4.59149 13.7918 3.88594 13.3169 3.28594 12.7173C2.68594 12.1178 2.21105 11.4122 1.86127 10.6006C1.51149 9.78909 1.33638 8.92243 1.33594 8.00065C1.33549 7.07887 1.51061 6.21221 1.86127 5.40065C2.21194 4.5891 2.68683 3.88354 3.28594 3.28398C3.88505 2.68443 4.59061 2.20954 5.40261 1.85932C6.21461 1.5091 7.08127 1.33398 8.0026 1.33398C8.92394 1.33398 9.7906 1.5091 10.6026 1.85932C11.4146 2.20954 12.1202 2.68443 12.7193 3.28398C13.3184 3.88354 13.7935 4.5891 14.1446 5.40065C14.4957 6.21221 14.6706 7.07887 14.6693 8.00065C14.6679 8.92243 14.4928 9.78909 14.1439 10.6006C13.795 11.4122 13.3202 12.1178 12.7193 12.7173C12.1184 13.3169 11.4128 13.792 10.6026 14.1426C9.79238 14.4933 8.92572 14.6682 8.0026 14.6673ZM8.0026 13.334C9.49149 13.334 10.7526 12.8173 11.7859 11.784C12.8193 10.7507 13.3359 9.48954 13.3359 8.00065C13.3359 6.51176 12.8193 5.25065 11.7859 4.21732C10.7526 3.18398 9.49149 2.66732 8.0026 2.66732C6.51372 2.66732 5.2526 3.18398 4.21927 4.21732C3.18594 5.25065 2.66927 6.51176 2.66927 8.00065C2.66927 9.48954 3.18594 10.7507 4.21927 11.784C5.2526 12.8173 6.51372 13.334 8.0026 13.334Z" fill="#FF3336"/>
</svg>
