<svg width="43" height="43" viewBox="0 0 43 43" fill="none" xmlns="http://www.w3.org/2000/svg">
<path d="M4.99264 4.08542C5.16193 4.03537 5.33942 4.01916 5.51497 4.03773C5.69052 4.05629 5.86069 4.10927 6.01577 4.19363C6.17084 4.27798 6.30777 4.39207 6.41873 4.52937C6.5297 4.66666 6.61252 4.82448 6.66247 4.99379L7.64789 8.33167H33.9048C37.2014 8.33167 39.7187 11.408 38.7691 14.6204L35.8039 24.6538C35.1733 26.7912 33.1684 28.2192 30.9396 28.2192H14.5351C12.3062 28.2192 10.3031 26.7912 9.67068 24.6538L4.08606 5.75525C3.98544 5.41384 4.0244 5.04646 4.19436 4.73373C4.36433 4.42101 4.65142 4.1867 4.99264 4.08542ZM11.1972 34.9379C11.1972 33.8688 11.6219 32.8434 12.3779 32.0874C13.1339 31.3314 14.1593 30.9067 15.2284 30.9067C16.2976 30.9067 17.3229 31.3314 18.079 32.0874C18.835 32.8434 19.2597 33.8688 19.2597 34.9379C19.2597 36.0071 18.835 37.0324 18.079 37.7884C17.3229 38.5444 16.2976 38.9692 15.2284 38.9692C14.1593 38.9692 13.1339 38.5444 12.3779 37.7884C11.6219 37.0324 11.1972 36.0071 11.1972 34.9379ZM25.5305 34.9379C25.5305 34.4085 25.6348 33.8843 25.8374 33.3952C26.04 32.9061 26.3369 32.4617 26.7112 32.0874C27.0856 31.7131 27.53 31.4161 28.0191 31.2135C28.5082 31.0109 29.0324 30.9067 29.5618 30.9067C30.0912 30.9067 30.6154 31.0109 31.1045 31.2135C31.5936 31.4161 32.038 31.7131 32.4123 32.0874C32.7866 32.4617 33.0836 32.9061 33.2862 33.3952C33.4887 33.8843 33.593 34.4085 33.593 34.9379C33.593 36.0071 33.1683 37.0324 32.4123 37.7884C31.6563 38.5444 30.6309 38.9692 29.5618 38.9692C28.4926 38.9692 27.4672 38.5444 26.7112 37.7884C25.9552 37.0324 25.5305 36.0071 25.5305 34.9379Z" fill="#72A78B"/>
</svg>
