<svg width="13" height="13" viewBox="0 0 13 13" fill="none" xmlns="http://www.w3.org/2000/svg">
<path d="M1.62596 10.2922H11.376C11.4747 10.2918 11.5714 10.2646 11.6558 10.2134C11.7402 10.1622 11.809 10.0889 11.8549 10.0015C11.9008 9.9141 11.9219 9.81583 11.9161 9.71729C11.9102 9.61875 11.8776 9.52367 11.8218 9.44228L6.94675 2.40061C6.74471 2.10865 6.2583 2.10865 6.05571 2.40061L1.18071 9.44228C1.12428 9.5235 1.09119 9.61863 1.08503 9.71733C1.07888 9.81604 1.09989 9.91454 1.14578 10.0021C1.19168 10.0897 1.2607 10.1631 1.34536 10.2142C1.43002 10.2654 1.52706 10.2923 1.62596 10.2922Z" fill="#FF474A"/>
</svg>
