<svg width="13" height="13" viewBox="0 0 13 13" fill="none" xmlns="http://www.w3.org/2000/svg">
<path d="M1.62596 2.70785H11.376C11.4747 2.70816 11.5714 2.73538 11.6558 2.7866C11.7402 2.83781 11.809 2.91106 11.8549 2.99848C11.9008 3.0859 11.9219 3.18417 11.9161 3.28271C11.9102 3.38125 11.8776 3.47633 11.8218 3.55772L6.94675 10.5994C6.74471 10.8913 6.2583 10.8913 6.05571 10.5994L1.18071 3.55772C1.12428 3.4765 1.09119 3.38137 1.08503 3.28267C1.07888 3.18396 1.09989 3.08546 1.14578 2.99785C1.19168 2.91025 1.2607 2.8369 1.34536 2.78577C1.43002 2.73464 1.52706 2.70769 1.62596 2.70785Z" fill="#FF474A"/>
</svg>
