<svg width="119" height="60" viewBox="0 0 119 60" fill="none" xmlns="http://www.w3.org/2000/svg">
<mask id="path-1-inside-1_1_24749" fill="white">
<path d="M119 59.5C119 51.6863 117.461 43.9492 114.471 36.7303C111.481 29.5115 107.098 22.9522 101.573 17.4271C96.0478 11.9021 89.4885 7.51932 82.2697 4.52917C75.0508 1.53901 67.3137 -3.41546e-07 59.5 0C51.6863 3.41546e-07 43.9492 1.53901 36.7303 4.52917C29.5115 7.51932 22.9522 11.9021 17.4271 17.4271C11.9021 22.9522 7.51932 29.5115 4.52917 36.7303C1.53901 43.9492 -6.83091e-07 51.6864 0 59.5H1.82354C1.82354 51.9258 3.31538 44.4258 6.2139 37.4282C9.11241 30.4305 13.3608 24.0723 18.7166 18.7166C24.0723 13.3608 30.4305 9.11241 37.4282 6.2139C44.4258 3.31539 51.9258 1.82354 59.5 1.82354C67.0742 1.82354 74.5742 3.31538 81.5718 6.2139C88.5695 9.11241 94.9277 13.3608 100.283 18.7166C105.639 24.0723 109.888 30.4305 112.786 37.4282C115.685 44.4258 117.176 51.9258 117.176 59.5H119Z"/>
</mask>
<path d="M119 59.5C119 51.6863 117.461 43.9492 114.471 36.7303C111.481 29.5115 107.098 22.9522 101.573 17.4271C96.0478 11.9021 89.4885 7.51932 82.2697 4.52917C75.0508 1.53901 67.3137 -3.41546e-07 59.5 0C51.6863 3.41546e-07 43.9492 1.53901 36.7303 4.52917C29.5115 7.51932 22.9522 11.9021 17.4271 17.4271C11.9021 22.9522 7.51932 29.5115 4.52917 36.7303C1.53901 43.9492 -6.83091e-07 51.6864 0 59.5H1.82354C1.82354 51.9258 3.31538 44.4258 6.2139 37.4282C9.11241 30.4305 13.3608 24.0723 18.7166 18.7166C24.0723 13.3608 30.4305 9.11241 37.4282 6.2139C44.4258 3.31539 51.9258 1.82354 59.5 1.82354C67.0742 1.82354 74.5742 3.31538 81.5718 6.2139C88.5695 9.11241 94.9277 13.3608 100.283 18.7166C105.639 24.0723 109.888 30.4305 112.786 37.4282C115.685 44.4258 117.176 51.9258 117.176 59.5H119Z" stroke="#FF999B" stroke-width="2" stroke-dasharray="4 4" mask="url(#path-1-inside-1_1_24749)"/>
</svg>
