<svg width="33" height="33" viewBox="0 0 33 33" fill="none" xmlns="http://www.w3.org/2000/svg">
<path d="M30.25 16.5C30.25 11.3146 30.25 8.72183 28.6391 7.11091C27.0282 5.5 24.4355 5.5 19.25 5.5H15.125C12.4261 5.5 11.0766 5.5 9.91533 6.08065C8.75402 6.6613 7.94435 7.74087 6.325 9.9C3.94167 13.0778 2.75 14.6667 2.75 16.5C2.75 18.3333 3.94167 19.9222 6.325 23.1C7.94435 25.2591 8.75402 26.3387 9.91533 26.9193C11.0766 27.5 12.4261 27.5 15.125 27.5H19.25C24.4354 27.5 27.0282 27.5 28.6391 25.8891C30.25 24.2782 30.25 21.6854 30.25 16.5Z" fill="#0C3C40" stroke="#0C3C40" stroke-width="1.5"/>
<path d="M13.75 12.375L22 20.6245M13.75 20.625L22 12.3755" stroke="white" stroke-width="1.5" stroke-linecap="round" stroke-linejoin="round"/>
</svg>
