<svg width="24" height="24" viewBox="0 0 24 24" fill="none" xmlns="http://www.w3.org/2000/svg">
<path d="M14.1875 2.75195V6.34795C14.1875 6.83495 14.3815 7.30295 14.7275 7.64795C15.0744 7.99332 15.544 8.18714 16.0335 8.18695H20.1585" stroke="black" stroke-width="1.5" stroke-linecap="round" stroke-linejoin="round"/>
<path d="M7.647 7.64605H10.912M7.647 11.9991H16.353M7.647 16.3521H16.353M20.25 8.56705V17.1351C20.2301 17.6955 20.0996 18.2464 19.8658 18.7562C19.6321 19.2659 19.2997 19.7243 18.888 20.1051C18.4759 20.4875 17.9925 20.7851 17.4654 20.9807C16.9383 21.1763 16.3778 21.2661 15.816 21.2451H8.226C7.66074 21.2709 7.09594 21.1849 6.56398 20.992C6.03201 20.7991 5.54335 20.5032 5.126 20.1211C4.71027 19.7393 4.37454 19.2788 4.13833 18.7661C3.90211 18.2535 3.77011 17.6991 3.75 17.1351V6.86105C3.76985 6.30063 3.90042 5.74967 4.13418 5.23993C4.36794 4.7302 4.70026 4.27177 5.112 3.89105C5.52408 3.50857 6.00748 3.21103 6.53458 3.01543C7.06169 2.81982 7.62217 2.72999 8.184 2.75105H13.898C14.7703 2.74797 15.6123 3.07072 16.259 3.65605L19.219 6.37805C19.5349 6.65013 19.7899 6.98565 19.9675 7.3628C20.1452 7.73994 20.2414 8.15026 20.25 8.56705Z" stroke="black" stroke-width="1.5" stroke-linecap="round" stroke-linejoin="round"/>
</svg>
