<svg width="25" height="25" viewBox="0 0 25 25" fill="none" xmlns="http://www.w3.org/2000/svg">
<path d="M22.1252 11.0628C22.1252 12.1737 21.2246 13.0742 20.1138 13.0742C18.4474 13.0742 17.0966 11.7234 17.0966 10.0571V6.0343C17.0966 4.36799 18.4474 3.01719 20.1138 3.01719C21.2246 3.01719 22.1252 3.91773 22.1252 5.02859V11.0628Z" stroke="#141B34" stroke-width="1.50855" stroke-linecap="round" stroke-linejoin="round"/>
<path d="M8.57071 15.7844L8.83853 14.9194C9.05799 14.2106 9.16772 13.8562 9.08334 13.5764C9.01507 13.3499 8.8652 13.1547 8.66097 13.0263C8.40853 12.8676 8.02666 12.8676 7.26292 12.8676H6.85662C4.27191 12.8676 2.97956 12.8676 2.36914 12.1025C2.29937 12.0151 2.23733 11.9221 2.18366 11.8246C1.71406 10.9712 2.24793 9.82173 3.31568 7.52272C4.29552 5.41298 4.78545 4.3581 5.69512 3.7372C5.78319 3.67709 5.87369 3.6204 5.9664 3.56725C6.92408 3.01828 8.11069 3.01828 10.4839 3.01828H10.9986C13.8738 3.01828 15.3114 3.01828 16.2046 3.88372C17.0978 4.74916 17.0978 6.14206 17.0978 8.92787V9.90701C17.0978 11.371 17.0978 12.103 16.838 12.773C16.5782 13.443 16.0807 13.9939 15.0857 15.0957L10.971 19.652C10.8678 19.7663 10.8162 19.8235 10.7707 19.8631C10.346 20.2326 9.69058 20.191 9.3193 19.7709C9.27952 19.7259 9.23605 19.6628 9.14912 19.5364C9.01314 19.3388 8.94515 19.24 8.88589 19.1421C8.3554 18.2656 8.1949 17.2245 8.4379 16.2361C8.46504 16.1257 8.50029 16.0119 8.57071 15.7844Z" stroke="#141B34" stroke-width="1.50855" stroke-linecap="round" stroke-linejoin="round"/>
</svg>
