<svg width="24" height="24" viewBox="0 0 24 24" fill="none" xmlns="http://www.w3.org/2000/svg">
<path d="M12 21C10.3867 21 9.06667 20.7947 8.04 20.384C7.01333 19.9727 6.5 19.4407 6.5 18.788C6.5 18.4973 6.635 18.2187 6.905 17.952C7.175 17.6853 7.54767 17.4543 8.023 17.259C8.141 17.195 8.27033 17.183 8.411 17.223C8.551 17.263 8.653 17.342 8.717 17.46C8.781 17.5773 8.789 17.703 8.741 17.837C8.693 17.971 8.61 18.07 8.492 18.134C8.274 18.2113 8.06567 18.3077 7.867 18.423C7.66833 18.5383 7.54967 18.6537 7.511 18.769C7.62567 19.1003 8.10967 19.3883 8.963 19.633C9.81633 19.8777 10.8287 20 12 20C13.1713 20 14.1837 19.8777 15.037 19.633C15.8903 19.3883 16.374 19.1003 16.488 18.769C16.45 18.6537 16.3317 18.5383 16.133 18.423C15.9343 18.3077 15.726 18.2117 15.508 18.135C15.39 18.071 15.3067 17.972 15.258 17.838C15.2107 17.704 15.219 17.578 15.283 17.46C15.347 17.342 15.4493 17.263 15.59 17.223C15.7307 17.183 15.8597 17.1953 15.977 17.26C16.4523 17.4547 16.825 17.6853 17.095 17.952C17.365 18.2187 17.5 18.4973 17.5 18.788C17.5 19.4413 16.9867 19.9733 15.96 20.384C14.9333 20.7947 13.6133 21 12 21ZM12 17.602C11.8387 17.602 11.6773 17.572 11.516 17.512C11.354 17.452 11.2023 17.368 11.061 17.26C9.36367 15.8727 8.096 14.5197 7.258 13.201C6.42 11.8823 6.00067 10.5833 6 9.304C6 8.26133 6.18033 7.34867 6.541 6.566C6.90233 5.78333 7.37133 5.12733 7.948 4.598C8.52467 4.06867 9.169 3.67 9.881 3.402C10.593 3.134 11.2993 3 12 3C12.7007 3 13.4073 3.134 14.12 3.402C14.8313 3.67 15.4753 4.06867 16.052 4.598C16.6287 5.12733 17.0977 5.78333 17.459 6.566C17.8203 7.34867 18.0007 8.26133 18 9.304C18 10.5833 17.5807 11.8823 16.742 13.201C15.9033 14.5197 14.6353 15.8723 12.938 17.259C12.7973 17.367 12.646 17.451 12.484 17.511C12.3227 17.5717 12.1613 17.602 12 17.602ZM12 10.788C12.4473 10.788 12.8283 10.634 13.143 10.326C13.4577 10.0173 13.615 9.633 13.615 9.173C13.615 8.72567 13.4577 8.34467 13.143 8.03C12.8283 7.71533 12.4473 7.558 12 7.558C11.5653 7.558 11.1873 7.71533 10.866 8.03C10.5447 8.34467 10.384 8.72567 10.384 9.173C10.384 9.633 10.5447 10.0173 10.866 10.326C11.1873 10.6347 11.5653 10.7887 12 10.788Z" fill="#9C9C9C"/>
</svg>
