<svg width="20" height="20" viewBox="0 0 20 20" fill="none" xmlns="http://www.w3.org/2000/svg">
<path d="M13.8525 2.14639C13.8991 2.19284 13.936 2.24801 13.9612 2.30876C13.9864 2.3695 13.9994 2.43463 13.9994 2.50039C13.9994 2.56616 13.9864 2.63128 13.9612 2.69203C13.936 2.75277 13.8991 2.80795 13.8525 2.85439L12.7055 4.00039H14.3295C14.4831 4.00044 14.633 4.04765 14.7589 4.13564C14.8848 4.22363 14.9807 4.34816 15.0335 4.49239L15.9505 6.99239C15.992 7.10571 16.0056 7.22738 15.99 7.34706C15.9745 7.46673 15.9303 7.58089 15.8612 7.67983C15.7921 7.77878 15.7001 7.85958 15.5931 7.91539C15.4861 7.9712 15.3672 8.00036 15.2465 8.00039H14.9075L13.4825 16.3374C13.403 16.8026 13.1615 17.2247 12.8008 17.529C12.4401 17.8333 11.9834 18.0003 11.5115 18.0004H8.48651C8.01441 18.0005 7.55747 17.8337 7.19657 17.5293C6.83566 17.225 6.59406 16.8027 6.51451 16.3374L5.08951 8.00039H4.74951C4.62867 8.00031 4.50963 7.97104 4.40254 7.91505C4.29545 7.85907 4.20347 7.77804 4.13443 7.67885C4.0654 7.57967 4.02135 7.46527 4.00604 7.34541C3.99073 7.22554 4.00462 7.10374 4.04651 6.99039L4.96951 4.49039C5.02268 4.34654 5.11867 4.22244 5.24455 4.13482C5.37043 4.04721 5.52014 4.00029 5.67351 4.00039H11.3155C11.3375 3.96236 11.3644 3.9274 11.3955 3.89639L13.1455 2.14639C13.2393 2.05266 13.3664 2 13.499 2C13.6316 2 13.7587 2.05266 13.8525 2.14639ZM6.10451 8.00039L7.49951 16.1694C7.53939 16.402 7.66024 16.613 7.84068 16.765C8.02112 16.9171 8.24953 17.0005 8.48551 17.0004H11.5105C11.7463 17.0002 11.9745 16.9168 12.1547 16.7647C12.335 16.6127 12.4557 16.4018 12.4955 16.1694L13.8935 8.00039H6.10451ZM5.10851 7.00039H14.8885L14.1545 5.00039H5.84751L5.10851 7.00039Z" fill="#429E6E"/>
</svg>
