<svg width="24" height="24" viewBox="0 0 24 24" fill="none" xmlns="http://www.w3.org/2000/svg">
<path d="M9.90449 22.543C11.4634 22.8531 13.0717 22.8136 14.6136 22.4273C16.1554 22.0411 17.5924 21.3178 18.8211 20.3095C20.0498 19.3011 21.0396 18.0329 21.7192 16.596C22.3989 15.1592 22.7514 13.5895 22.7515 12C22.7515 11.8011 22.6725 11.6103 22.5318 11.4697C22.3912 11.329 22.2004 11.25 22.0015 11.25C21.8026 11.25 21.6118 11.329 21.4712 11.4697C21.3305 11.6103 21.2515 11.8011 21.2515 12C21.2515 13.8295 20.709 15.6179 19.6926 17.139C18.6762 18.6602 17.2315 19.8458 15.5413 20.5459C13.8511 21.246 11.9912 21.4292 10.1969 21.0723C8.40258 20.7154 6.75439 19.8344 5.46075 18.5407C4.16712 17.2471 3.28614 15.5989 2.92923 13.8046C2.57231 12.0103 2.75549 10.1504 3.45561 8.46018C4.15572 6.76996 5.34131 5.32531 6.86247 4.30891C8.38362 3.2925 10.172 2.75 12.0015 2.75C12.2004 2.75 12.3912 2.67098 12.5318 2.53033C12.6725 2.38968 12.7515 2.19891 12.7515 2C12.7515 1.80109 12.6725 1.61032 12.5318 1.46967C12.3912 1.32902 12.2004 1.25 12.0015 1.25C9.33324 1.25061 6.76057 2.2435 4.78374 4.03562C2.8069 5.82774 1.5672 8.291 1.30569 10.9464C1.04417 13.6018 1.77954 16.2596 3.3688 18.4029C4.95806 20.5462 7.28762 22.0219 9.90449 22.543Z" fill="#8D8D8D"/>
<path d="M12 8.25087C12.1989 8.25087 12.3897 8.32989 12.5303 8.47054C12.671 8.61119 12.75 8.80196 12.75 9.00087V11.2509H15C15.1989 11.2509 15.3897 11.3299 15.5303 11.4705C15.671 11.6112 15.75 11.802 15.75 12.0009C15.75 12.1998 15.671 12.3905 15.5303 12.5312C15.3897 12.6719 15.1989 12.7509 15 12.7509H12.75V15.0009C12.75 15.1998 12.671 15.3905 12.5303 15.5312C12.3897 15.6719 12.1989 15.7509 12 15.7509C11.8011 15.7509 11.6103 15.6719 11.4697 15.5312C11.329 15.3905 11.25 15.1998 11.25 15.0009V12.7509H9C8.80109 12.7509 8.61032 12.6719 8.46967 12.5312C8.32902 12.3905 8.25 12.1998 8.25 12.0009C8.25 11.802 8.32902 11.6112 8.46967 11.4705C8.61032 11.3299 8.80109 11.2509 9 11.2509H11.25V9.00087C11.25 8.80196 11.329 8.61119 11.4697 8.47054C11.6103 8.32989 11.8011 8.25087 12 8.25087ZM14.687 1.58987C14.5906 1.5621 14.4897 1.55394 14.3901 1.56588C14.2905 1.57781 14.1944 1.60959 14.1073 1.65934C14.0202 1.70909 13.944 1.7758 13.8831 1.85552C13.8223 1.93524 13.7781 2.02635 13.753 2.12347C13.728 2.22059 13.7228 2.32174 13.7375 2.42093C13.7523 2.52012 13.7868 2.61535 13.839 2.70098C13.8912 2.7866 13.96 2.86089 14.0415 2.91944C14.1229 2.978 14.2152 3.01962 14.313 3.04187C15.9126 3.45672 17.3722 4.29162 18.5407 5.46013C19.7092 6.62864 20.5442 8.08827 20.959 9.68787C21.0131 9.87545 21.1381 10.0346 21.3076 10.1314C21.4771 10.2283 21.6777 10.2552 21.8668 10.2065C22.0558 10.1578 22.2184 10.0373 22.32 9.87064C22.4217 9.70396 22.4543 9.50422 22.411 9.31387C21.9292 7.45464 20.959 5.75807 19.6009 4.39997C18.2428 3.04187 16.5462 2.07166 14.687 1.58987Z" fill="#8D8D8D"/>
</svg>
