<svg width="16" height="16" viewBox="0 0 16 16" fill="none" xmlns="http://www.w3.org/2000/svg">
<path d="M2.66797 14.0002H13.3346M3.77864 8.79156C3.49438 9.07645 3.33471 9.46244 3.33464 9.86489V12.0002H5.4833C5.88597 12.0002 6.27197 11.8402 6.55664 11.5549L12.89 5.21822C13.1741 4.93329 13.3337 4.5473 13.3337 4.14489C13.3337 3.74248 13.1741 3.35649 12.89 3.07156L12.2646 2.44489C12.1236 2.30379 11.9562 2.19187 11.7718 2.11554C11.5875 2.0392 11.39 1.99994 11.1905 2C10.991 2.00006 10.7935 2.03944 10.6092 2.1159C10.425 2.19235 10.2576 2.30437 10.1166 2.44556L3.77864 8.79156Z" stroke="black" stroke-width="1.5" stroke-linecap="round" stroke-linejoin="round"/>
</svg>
