<svg width="24" height="24" viewBox="0 0 24 24" fill="none" xmlns="http://www.w3.org/2000/svg">
<path fill-rule="evenodd" clip-rule="evenodd" d="M2 6.857C2 5.56884 2.51172 4.33345 3.42258 3.42258C4.33345 2.51172 5.56884 2 6.857 2H12C12.2652 2 12.5196 2.10536 12.7071 2.29289C12.8946 2.48043 13 2.73478 13 3C13 3.26522 12.8946 3.51957 12.7071 3.70711C12.5196 3.89464 12.2652 4 12 4H6.857C6.09928 4 5.37259 4.301 4.8368 4.8368C4.301 5.37259 4 6.09928 4 6.857V17.143C4 17.9007 4.301 18.6274 4.8368 19.1632C5.37259 19.699 6.09928 20 6.857 20H17.143C17.9007 20 18.6274 19.699 19.1632 19.1632C19.699 18.6274 20 17.9007 20 17.143V12C20 11.7348 20.1054 11.4804 20.2929 11.2929C20.4804 11.1054 20.7348 11 21 11C21.2652 11 21.5196 11.1054 21.7071 11.2929C21.8946 11.4804 22 11.7348 22 12V17.143C22 18.4312 21.4883 19.6666 20.5774 20.5774C19.6666 21.4883 18.4312 22 17.143 22H6.857C5.56884 22 4.33345 21.4883 3.42258 20.5774C2.51172 19.6666 2 18.4312 2 17.143V6.857Z" fill="black"/>
<path fill-rule="evenodd" clip-rule="evenodd" d="M15.1351 13.2189L12.9301 14.5489L11.8971 12.8359L14.1021 11.5059L14.1051 11.5039C14.1897 11.453 14.2676 11.3918 14.3371 11.3219L19.3471 6.28586C19.3973 6.23526 19.4457 6.1829 19.4921 6.12886C19.8231 5.74286 20.3131 4.97886 19.7201 4.38286C19.2191 3.87886 18.5011 4.35486 18.0361 4.76386C17.9114 4.87382 17.7913 4.98892 17.6761 5.10886L17.6421 5.14286L12.7021 10.1079C12.5848 10.2245 12.4929 10.364 12.4321 10.5179L11.6081 12.5909C11.5925 12.6299 11.5896 12.6728 11.5997 12.7136C11.6099 12.7544 11.6326 12.7909 11.6647 12.818C11.6968 12.8451 11.7366 12.8614 11.7785 12.8647C11.8204 12.8679 11.8613 12.8578 11.8971 12.8359L12.9301 14.5489C11.1251 15.6369 8.97013 13.8089 9.75013 11.8509L10.5751 9.77886C10.7358 9.37396 10.9774 9.00611 11.2851 8.69786L16.2241 3.73186L16.2531 3.70286C16.4001 3.55286 16.8941 3.04686 17.4931 2.68286C17.8201 2.48586 18.3421 2.22486 18.9871 2.17486C19.7271 2.11586 20.5171 2.34886 21.1371 2.97186C21.6117 3.44065 21.9101 4.0587 21.9821 4.72186C22.0317 5.23875 21.9527 5.75988 21.7521 6.23886C21.4621 6.95586 20.9781 7.48286 20.7651 7.69586L15.7551 12.7319C15.5685 12.9192 15.3618 13.0815 15.1351 13.2189ZM19.5881 6.09286C19.5881 6.09286 19.5841 6.09586 19.5751 6.09886L19.5881 6.09286Z" fill="black"/>
</svg>
