<svg width="16" height="16" viewBox="0 0 16 16" fill="none" xmlns="http://www.w3.org/2000/svg">
<path d="M14.0776 9.42042C14.1405 9.49625 14.1879 9.58373 14.2169 9.67786C14.246 9.77198 14.2562 9.87091 14.2471 9.969C14.2379 10.0671 14.2095 10.1624 14.1635 10.2495C14.1175 10.3366 14.0547 10.4138 13.9789 10.4767C12.8433 11.4185 11.8164 11.7498 10.8845 11.7498C9.64951 11.7498 8.58077 11.1692 7.64202 10.6598C6.07577 9.80854 4.83827 9.13667 2.97889 10.6785C2.90305 10.7414 2.81557 10.7887 2.72145 10.8178C2.62732 10.8469 2.5284 10.8571 2.43031 10.8479C2.33223 10.8388 2.23692 10.8104 2.14981 10.7644C2.0627 10.7183 1.98551 10.6556 1.92264 10.5798C1.85977 10.504 1.81245 10.4165 1.78339 10.3224C1.75433 10.2282 1.74409 10.1293 1.75326 10.0312C1.77178 9.83313 1.86823 9.65052 2.02139 9.52355C4.66202 7.33605 6.70889 8.44667 8.35827 9.34105C9.92452 10.1917 11.162 10.8642 13.0214 9.32167C13.0972 9.25878 13.1847 9.21145 13.2788 9.18238C13.373 9.15331 13.4719 9.14306 13.57 9.15223C13.6681 9.1614 13.7634 9.18981 13.8505 9.23582C13.9376 9.28184 14.0148 9.34457 14.0776 9.42042ZM2.97889 6.67792C4.83827 5.13542 6.07577 5.80792 7.64202 6.65855C8.57952 7.16855 9.64951 7.74917 10.8845 7.74917C11.8164 7.74917 12.8433 7.41792 13.9789 6.47605C14.1321 6.34907 14.2285 6.16646 14.247 5.96837C14.2655 5.77029 14.2046 5.57296 14.0776 5.4198C13.9507 5.26663 13.7681 5.17018 13.57 5.15166C13.3719 5.13314 13.1746 5.19407 13.0214 5.32104C11.162 6.86292 9.92452 6.19105 8.35827 5.3398C6.71139 4.44605 4.66202 3.33292 2.02139 5.52292C1.86823 5.64989 1.77178 5.83251 1.75326 6.03059C1.73474 6.22868 1.79567 6.42601 1.92264 6.57917C2.04961 6.73233 2.23223 6.82878 2.43031 6.8473C2.6284 6.86582 2.82573 6.80489 2.97889 6.67792Z" fill="black"/>
</svg>
