<svg width="17" height="17" viewBox="0 0 17 17" fill="none" xmlns="http://www.w3.org/2000/svg">
<path d="M12.0417 7.25333V5.13542C12.0417 3.18042 10.455 1.59375 8.5 1.59375C6.545 1.59375 4.95833 3.18042 4.95833 5.13542V7.25333C3.91 7.77749 3.1875 8.84708 3.1875 10.0938V12.2188C3.1875 13.9754 4.61833 15.4062 6.375 15.4062H10.625C12.3817 15.4062 13.8125 13.9754 13.8125 12.2188V10.0938C13.8125 8.84708 13.09 7.77749 12.0417 7.25333ZM9.20833 11.5104C9.20833 11.9 8.88958 12.2188 8.5 12.2188C8.11042 12.2188 7.79167 11.9 7.79167 11.5104V10.8021C7.79167 10.4125 8.11042 10.0938 8.5 10.0938C8.88958 10.0938 9.20833 10.4125 9.20833 10.8021V11.5104ZM10.625 6.90625H6.375V5.13542C6.375 3.96667 7.33125 3.01042 8.5 3.01042C9.66875 3.01042 10.625 3.96667 10.625 5.13542V6.90625Z" fill="#B4B4B4"/>
</svg>
