<svg width="20" height="20" viewBox="0 0 20 20" fill="none" xmlns="http://www.w3.org/2000/svg">
<path fill-rule="evenodd" clip-rule="evenodd" d="M4.1288 1.875H15.8738C16.4296 1.875 16.9046 1.875 17.2846 1.9225C17.6871 1.97333 18.0763 2.0875 18.3963 2.3875C18.7213 2.69333 18.8505 3.07417 18.9071 3.47C18.9596 3.83417 18.9596 4.28667 18.9596 4.80333V5.45C18.9596 5.8575 18.9596 6.20833 18.9296 6.5025C18.8963 6.81917 18.8255 7.115 18.6538 7.39917C18.483 7.68167 18.2538 7.88667 17.9888 8.07C17.7396 8.24333 17.4221 8.4225 17.0471 8.63333L14.5955 10.0133C14.0371 10.3275 13.843 10.4408 13.713 10.5533C13.4155 10.8117 13.2446 11.0992 13.1646 11.4583C13.1305 11.6125 13.1263 11.8058 13.1263 12.3942V14.6708C13.1263 15.4217 13.1263 16.0592 13.0488 16.55C12.9671 17.0708 12.7763 17.5708 12.2763 17.8833C11.7871 18.1892 11.2496 18.1608 10.7263 18.0367C10.2221 17.9175 9.6013 17.6742 8.8563 17.3833L8.78463 17.355C8.43463 17.2183 8.12963 17.0992 7.88797 16.9742C7.62797 16.84 7.3863 16.6733 7.20213 16.4133C7.01463 16.15 6.94047 15.8683 6.9063 15.58C6.8763 15.3175 6.8763 15.0025 6.8763 14.6508V12.3942C6.8763 11.8058 6.87297 11.6125 6.83797 11.4583C6.7625 11.1035 6.56926 10.7845 6.28963 10.5533C6.15963 10.4408 5.96463 10.3275 5.40713 10.0133L2.95547 8.63333C2.58047 8.4225 2.26297 8.24333 2.0138 8.07C1.7488 7.88667 1.51964 7.68167 1.3488 7.39917C1.17714 7.115 1.1063 6.81833 1.0738 6.5025C1.04297 6.20917 1.04297 5.8575 1.04297 5.45V4.80333C1.04297 4.28667 1.04297 3.83417 1.09547 3.47C1.15214 3.07417 1.2813 2.69333 1.6063 2.3875C1.9263 2.0875 2.31464 1.97333 2.71797 1.9225C3.09797 1.875 3.57297 1.875 4.1288 1.875ZM2.87464 3.16333C2.5963 3.19833 2.50797 3.255 2.46214 3.29917C2.42047 3.3375 2.36714 3.405 2.33214 3.6475C2.29464 3.9125 2.29297 4.27417 2.29297 4.84583V5.42083C2.29297 5.86583 2.29297 6.1525 2.3163 6.37417C2.33797 6.58 2.37464 6.67917 2.41964 6.75333C2.46547 6.82917 2.54214 6.915 2.7263 7.04333C2.9213 7.17833 3.18713 7.32917 3.59297 7.5575L6.02047 8.92417L6.08713 8.96167C6.5538 9.22417 6.87047 9.4025 7.1088 9.60917C7.59082 10.0158 7.92483 10.5704 8.0588 11.1867C8.1263 11.4925 8.1263 11.8367 8.1263 12.32V14.6192C8.1263 15.0125 8.12713 15.2542 8.1488 15.4358C8.16713 15.6008 8.19797 15.6567 8.22047 15.6892C8.24547 15.7242 8.29547 15.7783 8.4613 15.8642C8.63797 15.955 8.88213 16.0508 9.26713 16.2017C10.068 16.515 10.6071 16.7242 11.0146 16.8208C11.4138 16.9158 11.5455 16.8667 11.613 16.8242C11.6696 16.7883 11.7571 16.7158 11.8146 16.355C11.8746 15.9742 11.8763 15.4358 11.8763 14.6183V12.32C11.8763 11.8367 11.8763 11.4925 11.9446 11.1867C12.0784 10.5705 12.4121 10.0159 12.8938 9.60917C13.1321 9.4025 13.4496 9.22333 13.9146 8.96167L13.9821 8.92417L16.4096 7.5575C16.8155 7.32917 17.0813 7.17833 17.2763 7.04333C17.4605 6.915 17.5371 6.82917 17.583 6.75333C17.628 6.67917 17.6646 6.58 17.6855 6.37417C17.7088 6.1525 17.7096 5.86583 17.7096 5.42V4.845C17.7096 4.27417 17.708 3.91167 17.6705 3.6475C17.6355 3.405 17.5813 3.3375 17.5413 3.29917C17.4946 3.25583 17.4063 3.19833 17.128 3.16333C16.8363 3.12583 16.4405 3.125 15.8346 3.125H4.16797C3.56213 3.125 3.16714 3.12583 2.87464 3.16333Z" fill="black"/>
</svg>
