<svg width="16" height="16" viewBox="0 0 16 16" fill="none" xmlns="http://www.w3.org/2000/svg">
<path d="M9.39852 2.20078C9.39852 1.42828 8.77102 0.800781 7.99852 0.800781C7.22602 0.800781 6.59852 1.42828 6.59852 2.20078C6.59852 2.97328 7.22602 3.60078 7.99852 3.60078C8.77102 3.60078 9.39852 2.97328 9.39852 2.20078ZM9.99852 7.51828L11.156 9.07828C11.4185 9.43328 11.921 9.50828 12.276 9.24328C12.631 8.97828 12.706 8.47828 12.441 8.12328L10.6785 5.74828C10.0485 4.90078 9.05602 4.40078 7.99852 4.40078C6.94102 4.40078 5.94852 4.90078 5.31852 5.74828L3.55602 8.12328C3.29352 8.47828 3.36602 8.97828 3.72102 9.24328C4.07602 9.50828 4.57602 9.43328 4.84102 9.07828L5.99852 7.51828V14.4008C5.99852 14.8433 6.35602 15.2008 6.79852 15.2008C7.24102 15.2008 7.59852 14.8433 7.59852 14.4008V10.4008C7.59852 10.1808 7.77852 10.0008 7.99852 10.0008C8.21852 10.0008 8.39852 10.1808 8.39852 10.4008V14.4008C8.39852 14.8433 8.75602 15.2008 9.19852 15.2008C9.64102 15.2008 9.99852 14.8433 9.99852 14.4008V7.51828Z" fill="black"/>
</svg>
