<svg width="20" height="20" viewBox="0 0 20 20" fill="none" xmlns="http://www.w3.org/2000/svg">
<path d="M14.1802 2.54559C14.3527 2.42254 14.5655 2.3698 14.7755 2.39809C14.9855 2.42639 15.1768 2.53359 15.3105 2.6979C15.4443 2.86221 15.5104 3.0713 15.4955 3.28264C15.4806 3.49397 15.3857 3.69169 15.2302 3.83559L15.1485 3.90142L13.3977 5.15226C13.1461 5.33126 12.9504 5.57791 12.8333 5.8636C12.7162 6.1493 12.6825 6.46234 12.736 6.76642L12.7627 6.89309L15.5485 4.10726C15.6985 3.9578 15.8997 3.87103 16.1114 3.86457C16.323 3.8581 16.5291 3.93244 16.6879 4.07246C16.8467 4.21249 16.9463 4.40772 16.9664 4.61849C16.9865 4.82925 16.9256 5.03976 16.796 5.20726L16.7269 5.28559L13.941 8.07142C14.5285 8.22142 15.1785 8.03809 15.596 7.54642L15.6819 7.43642L16.9327 5.68559C17.0561 5.5138 17.2402 5.39536 17.4477 5.35428C17.6552 5.3132 17.8705 5.35256 18.0501 5.46438C18.2296 5.5762 18.3599 5.7521 18.4146 5.95644C18.4692 6.16077 18.4441 6.37824 18.3444 6.56476L18.2885 6.65392L17.0385 8.40559C16.5757 9.05268 15.8951 9.51131 15.1216 9.69742C14.3481 9.88353 13.5334 9.78466 12.8269 9.41892L12.6769 9.33559L10.7627 11.2489L14.2269 14.7139C14.3704 14.8574 14.4566 15.0483 14.4693 15.2509C14.482 15.4534 14.4204 15.6536 14.296 15.8139L14.2269 15.8923C14.0834 16.0357 13.8925 16.1219 13.6899 16.1347C13.4874 16.1474 13.2872 16.0858 13.1269 15.9614L13.0485 15.8923L9.58438 12.4273L6.12021 15.8923C5.97672 16.0357 5.7858 16.1219 5.58328 16.1347C5.38076 16.1474 5.18055 16.0858 5.02021 15.9614L4.94188 15.8923C4.7984 15.7488 4.71221 15.5578 4.69947 15.3553C4.68674 15.1528 4.74834 14.9526 4.87271 14.7923L4.94188 14.7139L8.40605 11.2489L7.06438 9.90726C6.7115 10.0982 6.33026 10.2313 5.93521 10.3014L5.72688 10.3323C5.2283 10.3953 4.7219 10.3415 4.24768 10.1752C3.77345 10.0088 3.34439 9.73454 2.99438 9.37392C2.22021 8.59892 1.77771 7.62476 1.66771 6.68892C1.55938 5.76809 1.76771 4.78142 2.44271 4.10726C3.11688 3.43226 4.10271 3.22392 5.02355 3.33226C5.95938 3.44309 6.93438 3.88559 7.70855 4.65976C8.06904 5.00968 8.34326 5.4386 8.50958 5.91267C8.67589 6.38674 8.72974 6.89298 8.66688 7.39142C8.61688 7.81226 8.49438 8.21142 8.32855 8.55892L8.24188 8.72892L9.58355 10.0706L11.4985 8.15726C11.0976 7.47199 10.9564 6.66538 11.1008 5.88467C11.2453 5.10397 11.6656 4.40123 12.2852 3.90476L12.4285 3.79642L14.1802 2.54559Z" fill="#429E6E"/>
</svg>
