<svg width="20" height="20" viewBox="0 0 20 20" fill="none" xmlns="http://www.w3.org/2000/svg">
<path d="M10.418 16.6673H8.7513C5.61915 16.6673 4.05308 16.6673 3.00752 15.8416C2.84028 15.7095 2.68563 15.564 2.5453 15.4066C1.66797 14.4225 1.66797 12.9486 1.66797 10.0007C1.66797 7.05275 1.66797 5.5788 2.5453 4.59473C2.68563 4.43734 2.84028 4.29178 3.00752 4.15971C4.05308 3.33398 5.61915 3.33398 8.7513 3.33398H11.2513C14.3834 3.33398 15.9495 3.33398 16.9951 4.15971C17.1623 4.29178 17.317 4.43734 17.4573 4.59473C18.2008 5.42864 18.3142 6.61433 18.3315 8.75065" stroke="#141B34" stroke-width="1.5" stroke-linecap="round" stroke-linejoin="round"/>
<path d="M15.4167 16.6673L15.4167 10.834M12.5 13.7507H18.3333" stroke="#141B34" stroke-width="1.5" stroke-linecap="round"/>
<path d="M1.66797 7.5H18.3346" stroke="#141B34" stroke-width="1.5" stroke-linejoin="round"/>
</svg>
