<svg width="52" height="52" viewBox="0 0 52 52" fill="none" xmlns="http://www.w3.org/2000/svg">
<path d="M9.75 9.75H16.25V16.5262C15.3819 16.2185 14.4444 16.1629 13.546 16.3661C12.6476 16.5692 11.8252 17.0226 11.1739 17.6739C10.5226 18.3252 10.0692 19.1476 9.86606 20.046C9.66295 20.9444 9.71849 21.8819 10.0262 22.75H3.25V16.25C3.25 14.5261 3.93482 12.8728 5.15381 11.6538C6.37279 10.4348 8.02609 9.75 9.75 9.75ZM19.5 28.2977L23.2245 32.0255C23.5296 32.3306 23.9435 32.5021 24.375 32.5021C24.8065 32.5021 25.2204 32.3306 25.5255 32.0255C25.8306 31.7204 26.0021 31.3065 26.0021 30.875C26.0021 30.4435 25.8306 30.0296 25.5255 29.7245L21.7977 26H48.75V35.75C48.75 37.4739 48.0652 39.1272 46.8462 40.3462C45.6272 41.5652 43.9739 42.25 42.25 42.25H19.5V28.2977ZM13.9523 26L10.2245 29.7245C9.91937 30.0296 9.74795 30.4435 9.74795 30.875C9.74795 31.3065 9.91937 31.7204 10.2245 32.0255C10.5296 32.3306 10.9435 32.5021 11.375 32.5021C11.8065 32.5021 12.2204 32.3306 12.5255 32.0255L16.25 28.2977V42.25H9.75C8.02609 42.25 6.37279 41.5652 5.15381 40.3462C3.93482 39.1272 3.25 37.4739 3.25 35.75V26H13.9523ZM25.7237 22.75C25.9058 22.2387 25.9978 21.697 26 21.125C26.0004 20.3449 25.8136 19.5761 25.4552 18.8831C25.0969 18.1902 24.5775 17.5933 23.9406 17.1428C23.3038 16.6922 22.5681 16.401 21.7954 16.2938C21.0227 16.1865 20.2355 16.2662 19.5 16.5262V9.75H42.25C43.9739 9.75 45.6272 10.4348 46.8462 11.6538C48.0652 12.8728 48.75 14.5261 48.75 16.25V22.75H25.7237ZM19.5 21.125V22.75H21.125C21.4464 22.75 21.7606 22.6547 22.0278 22.4761C22.295 22.2976 22.5033 22.0438 22.6263 21.7469C22.7493 21.4499 22.7815 21.1232 22.7188 20.808C22.6561 20.4928 22.5013 20.2032 22.274 19.976C22.0468 19.7487 21.7572 19.5939 21.442 19.5312C21.1268 19.4685 20.8001 19.5007 20.5031 19.6237C20.2062 19.7467 19.9524 19.955 19.7739 20.2222C19.5953 20.4894 19.5 20.8036 19.5 21.125ZM16.25 21.125V22.75H14.625C14.3036 22.75 13.9894 22.6547 13.7222 22.4761C13.455 22.2976 13.2467 22.0438 13.1237 21.7469C13.0007 21.4499 12.9685 21.1232 13.0312 20.808C13.0939 20.4928 13.2487 20.2032 13.476 19.976C13.7032 19.7487 13.9928 19.5939 14.308 19.5312C14.6232 19.4685 14.9499 19.5007 15.2469 19.6237C15.5438 19.7467 15.7976 19.955 15.9761 20.2222C16.1547 20.4894 16.25 20.8036 16.25 21.125Z" fill="#72A78B"/>
</svg>
