<svg width="28" height="28" viewBox="0 0 28 28" fill="none" xmlns="http://www.w3.org/2000/svg">
<path d="M1 13.71H9.18C8.70822 13.5022 8.27219 13.2212 7.888 12.8775C7.52711 12.5562 7.22993 12.1698 7.012 11.7385C6.80006 11.3136 6.69129 10.8448 6.6945 10.37C6.6945 9.8 6.82233 9.2925 7.078 8.8475C7.32574 8.4096 7.6869 8.04654 8.1235 7.7965C8.5655 7.54083 9.0675 7.413 9.6295 7.413C10.1185 7.413 10.5838 7.50967 11.0255 7.703C11.4758 7.90279 11.8858 8.18304 12.2355 8.53C12.6115 8.9029 12.9224 9.33604 13.1555 9.8115V4.5H14.5905V9.8115C14.8299 9.33716 15.1441 8.90446 15.521 8.53C15.8707 8.18304 16.2807 7.90279 16.731 7.703C17.1674 7.5102 17.6394 7.41139 18.1165 7.413C18.6785 7.413 19.1805 7.54083 19.6225 7.7965C20.0591 8.04654 20.4203 8.4096 20.668 8.8475C20.9237 9.29283 21.0515 9.80033 21.0515 10.37C21.0515 10.859 20.9475 11.3152 20.7395 11.7385C20.5251 12.1707 20.2294 12.5574 19.8685 12.8775C19.4815 13.2229 19.0416 13.504 18.5655 13.71H26.735V15.013H15.729C15.897 15.3637 16.149 15.7415 16.485 16.1465C16.8343 16.5658 17.219 16.9543 17.635 17.3075C18.0437 17.6606 18.4877 17.9706 18.96 18.2325C19.4127 18.4812 19.8397 18.6272 20.241 18.6705C20.5477 18.6998 20.7832 18.804 20.9475 18.983C21.1115 19.1617 21.1937 19.3933 21.194 19.678C21.194 19.9337 21.0973 20.16 20.904 20.357C20.71 20.5543 20.4452 20.631 20.1095 20.587C19.6568 20.5217 19.1585 20.35 18.6145 20.072C18.0413 19.7749 17.5017 19.417 17.005 19.0045C16.4774 18.5718 16.0015 18.0795 15.587 17.5375C15.1703 16.9935 14.8673 16.4222 14.678 15.8235H14.5905V23.2045H13.1555V15.8235H13.079C12.889 16.4222 12.586 16.9935 12.17 17.5375C11.7555 18.0795 11.2796 18.5718 10.752 19.0045C10.2541 19.4182 9.71257 19.7763 9.137 20.0725C8.589 20.3498 8.09233 20.5215 7.647 20.5875C7.31167 20.6308 7.04717 20.5542 6.8535 20.3575C6.66017 20.1598 6.5635 19.9333 6.5635 19.678C6.5635 19.3933 6.6455 19.1617 6.8095 18.983C6.97383 18.804 7.2055 18.6998 7.5045 18.6705C7.91383 18.6272 8.34467 18.4793 8.797 18.227C9.269 17.9624 9.71294 17.6507 10.122 17.2965C10.5368 16.9439 10.9214 16.5574 11.272 16.141C11.608 15.7397 11.8598 15.3637 12.0275 15.013H1V13.71ZM12.597 13.535H12.9475V13.206C12.9475 12.651 12.8618 12.1272 12.6905 11.6345C12.5289 11.1606 12.2902 10.7166 11.984 10.3205C11.6847 9.93717 11.3415 9.636 10.9545 9.417C10.578 9.20085 10.1512 9.08756 9.717 9.0885C9.301 9.0885 8.96883 9.2145 8.7205 9.4665C8.4725 9.71817 8.34833 10.0632 8.348 10.5015C8.348 10.8665 8.46133 11.2278 8.688 11.5855C8.914 11.9432 9.22417 12.2698 9.6185 12.5655C10.0314 12.8707 10.4896 13.1091 10.9765 13.272C11.4983 13.4491 12.046 13.5383 12.597 13.535ZM15.149 13.5345C15.7037 13.5379 16.255 13.4491 16.7805 13.2715C17.2674 13.1086 17.7256 12.8702 18.1385 12.565C18.5325 12.2693 18.8408 11.9427 19.0635 11.585C19.2865 11.227 19.398 10.8655 19.398 10.5005C19.398 10.0625 19.2757 9.7175 19.031 9.4655C18.7863 9.2135 18.4523 9.08767 18.029 9.088C17.598 9.088 17.1892 9.1975 16.8025 9.4165C16.4158 9.6355 16.0727 9.93667 15.773 10.32C15.4664 10.7167 15.2259 11.1605 15.061 11.634C14.8837 12.1388 14.7949 12.6705 14.7985 13.2055V13.534L15.149 13.5345ZM4.439 23.204H23.2965C24.4425 23.204 25.3022 22.9212 25.8755 22.3555C26.4485 21.7895 26.735 20.9445 26.735 19.8205V7.895C26.735 6.77067 26.4483 5.92367 25.875 5.354C25.3017 4.78433 24.4423 4.49967 23.297 4.5H4.4385C3.29283 4.5 2.43333 4.78283 1.86 5.3485C1.28667 5.91417 1 6.763 1 7.895V19.82C1 20.9447 1.28667 21.7897 1.86 22.355C2.433 22.921 3.2925 23.204 4.4385 23.204" fill="white"/>
</svg>
