<svg width="36" height="36" viewBox="0 0 36 36" fill="none" xmlns="http://www.w3.org/2000/svg">
<path d="M6.75 6.75H11.25V11.4412C10.649 11.2282 9.99995 11.1897 9.378 11.3303C8.75605 11.471 8.18666 11.7849 7.73577 12.2358C7.28489 12.6867 6.97096 13.256 6.83035 13.878C6.68973 14.4999 6.72818 15.149 6.94125 15.75H2.25V11.25C2.25 10.0565 2.72411 8.91193 3.56802 8.06802C4.41193 7.22411 5.55653 6.75 6.75 6.75ZM13.5 19.5907L16.0785 22.1715C16.2897 22.3827 16.5763 22.5014 16.875 22.5014C17.1737 22.5014 17.4603 22.3827 17.6715 22.1715C17.8827 21.9603 18.0014 21.6737 18.0014 21.375C18.0014 21.0763 17.8827 20.7897 17.6715 20.5785L15.0907 18H33.75V24.75C33.75 25.9435 33.2759 27.0881 32.432 27.932C31.5881 28.7759 30.4435 29.25 29.25 29.25H13.5V19.5907ZM9.65925 18L7.0785 20.5785C6.86725 20.7897 6.74858 21.0763 6.74858 21.375C6.74858 21.6737 6.86725 21.9603 7.0785 22.1715C7.28974 22.3827 7.57625 22.5014 7.875 22.5014C8.17375 22.5014 8.46026 22.3827 8.6715 22.1715L11.25 19.5907V29.25H6.75C5.55653 29.25 4.41193 28.7759 3.56802 27.932C2.72411 27.0881 2.25 25.9435 2.25 24.75V18H9.65925ZM17.8088 15.75C17.9347 15.396 17.9985 15.021 18 14.625C18.0003 14.0849 17.8709 13.5527 17.6229 13.0729C17.3748 12.5932 17.0152 12.18 16.5743 11.8681C16.1334 11.5561 15.6241 11.3546 15.0891 11.2803C14.5542 11.206 14.0092 11.2612 13.5 11.4412V6.75H29.25C30.4435 6.75 31.5881 7.22411 32.432 8.06802C33.2759 8.91193 33.75 10.0565 33.75 11.25V15.75H17.8088ZM13.5 14.625V15.75H14.625C14.8475 15.75 15.065 15.684 15.25 15.5604C15.435 15.4368 15.5792 15.2611 15.6644 15.0555C15.7495 14.85 15.7718 14.6238 15.7284 14.4055C15.685 14.1873 15.5778 13.9868 15.4205 13.8295C15.2632 13.6722 15.0627 13.565 14.8445 13.5216C14.6262 13.4782 14.4 13.5005 14.1945 13.5856C13.9889 13.6708 13.8132 13.815 13.6896 14C13.566 14.185 13.5 14.4025 13.5 14.625ZM11.25 14.625V15.75H10.125C9.9025 15.75 9.68499 15.684 9.49998 15.5604C9.31498 15.4368 9.17078 15.2611 9.08564 15.0555C9.00049 14.85 8.97821 14.6238 9.02162 14.4055C9.06502 14.1873 9.17217 13.9868 9.3295 13.8295C9.48684 13.6722 9.68729 13.565 9.90552 13.5216C10.1238 13.4782 10.35 13.5005 10.5555 13.5856C10.7611 13.6708 10.9368 13.815 11.0604 14C11.184 14.185 11.25 14.4025 11.25 14.625Z" fill="#72A78B"/>
</svg>
