<svg width="24" height="24" viewBox="0 0 24 24" fill="none" xmlns="http://www.w3.org/2000/svg">
<path d="M19.978 7.31593L14.978 3.29452C13.252 1.90704 10.748 1.90704 9.022 3.29452L4.022 7.31593C2.896 8.22124 2.25 9.56869 2.25 11.0132V17.0073C2.25 19.6242 4.381 21.7539 7 21.7539H9.75V17.0073C9.75 15.7688 10.759 14.7605 12 14.7605C13.241 14.7605 14.25 15.7688 14.25 17.0073V21.7539H17C19.619 21.7539 21.75 19.6252 21.75 17.0073V11.0132C21.75 9.56869 21.104 8.22124 19.978 7.31593ZM20.25 17.0073C20.25 18.7969 18.792 20.2534 17 20.2534H15.75V17.0073C15.75 14.9416 14.068 13.2599 12 13.2599C9.932 13.2599 8.25 14.9416 8.25 17.0073V20.2534H7C5.208 20.2534 3.75 18.7969 3.75 17.0073V11.0132C3.75 10.0258 4.191 9.10455 4.961 8.48534L9.961 4.46393C11.143 3.5146 12.857 3.5146 14.038 4.46393L19.038 8.48534C19.808 9.10455 20.249 10.0258 20.249 11.0132V17.0073H20.25Z" fill="#9C9C9C"/>
</svg>
