<svg width="16" height="16" viewBox="0 0 16 16" fill="none" xmlns="http://www.w3.org/2000/svg">
<path d="M7.33203 11.334H8.66536V7.33398H7.33203V11.334ZM7.9987 6.00065C8.18759 6.00065 8.34603 5.93665 8.47403 5.80865C8.60203 5.68065 8.66581 5.52243 8.66536 5.33398C8.66492 5.14554 8.60092 4.98732 8.47336 4.85932C8.34581 4.73132 8.18759 4.66732 7.9987 4.66732C7.80981 4.66732 7.65159 4.73132 7.52403 4.85932C7.39648 4.98732 7.33248 5.14554 7.33203 5.33398C7.33159 5.52243 7.39559 5.68087 7.52403 5.80932C7.65248 5.93776 7.8107 6.00154 7.9987 6.00065ZM7.9987 14.6673C7.07648 14.6673 6.20981 14.4922 5.3987 14.142C4.58759 13.7918 3.88203 13.3169 3.28203 12.7173C2.68203 12.1178 2.20714 11.4122 1.85737 10.6006C1.50759 9.78909 1.33248 8.92243 1.33203 8.00065C1.33159 7.07887 1.5067 6.21221 1.85737 5.40065C2.20803 4.5891 2.68292 3.88354 3.28203 3.28398C3.88114 2.68443 4.5867 2.20954 5.3987 1.85932C6.2107 1.5091 7.07736 1.33398 7.9987 1.33398C8.92003 1.33398 9.7867 1.5091 10.5987 1.85932C11.4107 2.20954 12.1163 2.68443 12.7154 3.28398C13.3145 3.88354 13.7896 4.5891 14.1407 5.40065C14.4918 6.21221 14.6667 7.07887 14.6654 8.00065C14.664 8.92243 14.4889 9.78909 14.14 10.6006C13.7911 11.4122 13.3163 12.1178 12.7154 12.7173C12.1145 13.3169 11.4089 13.792 10.5987 14.1426C9.78848 14.4933 8.92181 14.6682 7.9987 14.6673Z" fill="#0069CC"/>
</svg>
