<svg width="25" height="25" viewBox="0 0 25 25" fill="none" xmlns="http://www.w3.org/2000/svg">
<path d="M2.01172 12.068C2.01172 10.9572 2.91226 10.0566 4.02312 10.0566C5.68943 10.0566 7.04023 11.4074 7.04023 13.0737V17.0966C7.04023 18.7629 5.68943 20.1137 4.02312 20.1137C2.91226 20.1137 2.01172 19.2131 2.01172 18.1023V12.068Z" stroke="#141B34" stroke-width="1.50855" stroke-linecap="round" stroke-linejoin="round"/>
<path d="M15.5662 7.3484L15.2983 8.21338C15.0789 8.92217 14.9692 9.27656 15.0535 9.55645C15.1218 9.78289 15.2717 9.97807 15.4759 10.1065C15.7283 10.2652 16.1102 10.2652 16.874 10.2652H17.2803C19.865 10.2652 21.1573 10.2652 21.7677 11.0303C21.8375 11.1178 21.8995 11.2107 21.9532 11.3083C22.4228 12.1616 21.8889 13.3111 20.8212 15.6101C19.8414 17.7198 19.3514 18.7747 18.4418 19.3956C18.3537 19.4557 18.2632 19.5124 18.1705 19.5656C17.2128 20.1145 16.0262 20.1145 13.653 20.1145H13.1382C10.2631 20.1145 8.82547 20.1145 7.93227 19.2491C7.03906 18.3837 7.03906 16.9908 7.03906 14.2049V13.2258C7.03906 11.7618 7.03906 11.0298 7.29888 10.3598C7.55869 9.68982 8.05618 9.13893 9.05117 8.03716L13.1659 3.48076C13.2691 3.36649 13.3207 3.30935 13.3662 3.26976C13.7909 2.90019 14.4463 2.94179 14.8176 3.36188C14.8574 3.40688 14.9008 3.47006 14.9878 3.5964C15.1237 3.79403 15.1917 3.89285 15.251 3.99075C15.7815 4.8672 15.942 5.90833 15.699 6.89672C15.6718 7.00712 15.6366 7.12094 15.5662 7.3484Z" stroke="#141B34" stroke-width="1.50855" stroke-linecap="round" stroke-linejoin="round"/>
</svg>
