<svg width="20" height="20" viewBox="0 0 20 20" fill="none" xmlns="http://www.w3.org/2000/svg">
<path d="M8.52328 8.52606C9.27922 7.77017 10.2968 7.33375 11.3655 7.30707C12.4342 7.2804 13.4722 7.6655 14.2649 8.38273L14.4158 8.52606L16.7724 10.8836C17.54 11.6525 17.9768 12.6907 17.9899 13.777C18.003 14.8634 17.5913 15.9119 16.8425 16.699C16.0937 17.4862 15.0671 17.9497 13.9814 17.9909C12.8958 18.0321 11.837 17.6476 11.0308 16.9194L10.8808 16.7761L9.11244 15.0077C8.96299 14.8578 8.87622 14.6565 8.86975 14.4449C8.86329 14.2333 8.93762 14.0271 9.07765 13.8683C9.21768 13.7095 9.4129 13.61 9.62367 13.5899C9.83444 13.5698 10.045 13.6307 10.2124 13.7602L10.2908 13.8294L12.0591 15.5977C12.5175 16.0588 13.1375 16.3231 13.7875 16.3347C14.4376 16.3463 15.0666 16.1041 15.5411 15.6597C16.0156 15.2152 16.2983 14.6033 16.3292 13.9539C16.3601 13.3045 16.1368 12.6686 15.7066 12.1811L15.5941 12.0619L13.2374 9.70523C13.0053 9.47304 12.7297 9.28885 12.4263 9.16319C12.123 9.03752 11.7979 8.97284 11.4695 8.97284C11.1412 8.97284 10.8161 9.03752 10.5127 9.16319C10.2094 9.28885 9.93376 9.47304 9.70161 9.70523C9.54524 9.86148 9.33321 9.94922 9.11215 9.94915C8.89109 9.94907 8.67912 9.86118 8.52286 9.70481C8.3666 9.54844 8.27886 9.33641 8.27894 9.11535C8.27902 8.89429 8.36691 8.68232 8.52328 8.52606ZM3.21994 3.22273C3.97589 2.46684 4.99344 2.03042 6.06214 2.00374C7.13083 1.97706 8.16889 2.36217 8.96161 3.07939L9.11244 3.22273L10.8799 4.99189C11.0294 5.14186 11.1162 5.34309 11.1226 5.55471C11.1291 5.76634 11.0548 5.97249 10.9147 6.13129C10.7747 6.2901 10.5795 6.38965 10.3687 6.40973C10.1579 6.42981 9.94744 6.3689 9.77994 6.23939L9.70161 6.17023L7.93411 4.40273C7.47492 3.94653 6.85668 3.68621 6.20947 3.67654C5.56226 3.66687 4.93653 3.9086 4.46391 4.35088C3.9913 4.79316 3.70865 5.40151 3.67542 6.04794C3.6422 6.69437 3.86099 7.32849 4.28578 7.81689L4.39828 7.93689L6.75578 10.2944C7.2246 10.7631 7.86037 11.0264 8.52328 11.0264C9.18619 11.0264 9.82196 10.7631 10.2908 10.2944C10.3681 10.217 10.46 10.1555 10.5611 10.1136C10.6622 10.0717 10.7706 10.0501 10.8801 10.0501C10.9895 10.05 11.0979 10.0715 11.1991 10.1134C11.3002 10.1552 11.3921 10.2166 11.4695 10.294C11.547 10.3713 11.6084 10.4632 11.6503 10.5643C11.6922 10.6654 11.7138 10.7738 11.7139 10.8833C11.7139 10.9927 11.6924 11.1011 11.6505 11.2023C11.6087 11.3034 11.5473 11.3953 11.4699 11.4727C10.714 12.2286 9.69644 12.665 8.62775 12.6917C7.55906 12.7184 6.52099 12.3333 5.72828 11.6161L5.57661 11.4727L3.21994 9.11523C2.43881 8.33386 2 7.27425 2 6.16939C2 5.06454 2.43881 4.00409 3.21994 3.22273Z" fill="#5B5B5B"/>
</svg>
