<svg width="16" height="20" viewBox="0 0 16 20" fill="none" xmlns="http://www.w3.org/2000/svg">
<path d="M12.5 7.34302V4.75C12.5 2.131 10.369 0 7.75 0C5.131 0 3 2.131 3 4.75V7.34399C1.246 8.04299 0 9.75 0 11.75V14.75C0 17.369 2.131 19.5 4.75 19.5H10.75C13.369 19.5 15.5 17.369 15.5 14.75V11.75C15.5 9.75 14.254 8.04202 12.5 7.34302ZM4.5 4.75C4.5 2.958 5.958 1.5 7.75 1.5C9.542 1.5 11 2.958 11 4.75V7.02502C10.915 7.02002 10.836 7 10.75 7H4.75C4.664 7 4.585 7.02102 4.5 7.02502V4.75ZM14 14.75C14 16.542 12.542 18 10.75 18H4.75C2.958 18 1.5 16.542 1.5 14.75V11.75C1.5 9.958 2.958 8.5 4.75 8.5H10.75C12.542 8.5 14 9.958 14 11.75V14.75ZM8.5 12.75V13.75C8.5 14.164 8.164 14.5 7.75 14.5C7.336 14.5 7 14.164 7 13.75V12.75C7 12.336 7.336 12 7.75 12C8.164 12 8.5 12.336 8.5 12.75Z" fill="#41416E"/>
</svg>
