<svg width="20" height="20" viewBox="0 0 20 20" fill="none" xmlns="http://www.w3.org/2000/svg">
<path d="M12.0807 10.0013C12.0807 10.5538 11.8612 11.0837 11.4705 11.4744C11.0798 11.8651 10.5499 12.0846 9.9974 12.0846C9.44486 12.0846 8.91496 11.8651 8.52426 11.4744C8.13356 11.0837 7.91406 10.5538 7.91406 10.0013C7.91406 9.44877 8.13356 8.91886 8.52426 8.52816C8.91496 8.13746 9.44486 7.91797 9.9974 7.91797C10.5499 7.91797 11.0798 8.13746 11.4705 8.52816C11.8612 8.91886 12.0807 9.44877 12.0807 10.0013Z" stroke="#5B5B5B" stroke-width="1.5" stroke-linecap="round" stroke-linejoin="round"/>
<path d="M15.4115 9.5752V9.58353M4.57812 10.4085V10.4169" stroke="#5B5B5B" stroke-width="2" stroke-linecap="round" stroke-linejoin="round"/>
<path d="M13.3307 4.16783C15.3974 4.16783 16.8224 4.48783 17.6082 4.73116C18.0607 4.87116 18.3307 5.30033 18.3307 5.77366V13.9028C18.3307 14.832 17.3074 15.5312 16.3941 15.3587C15.6107 15.2112 14.5899 15.092 13.3307 15.092C9.37241 15.092 8.42241 16.597 2.61824 15.317C2.3464 15.2554 2.10371 15.1029 1.93023 14.8847C1.75675 14.6665 1.66287 14.3957 1.66407 14.117V5.76783C1.66407 4.95449 2.43074 4.36199 3.22907 4.52033C8.49491 5.56533 9.51491 4.16783 13.3307 4.16783Z" stroke="#5B5B5B" stroke-width="1.5" stroke-linecap="round" stroke-linejoin="round"/>
</svg>
