<svg width="45" height="45" viewBox="0 0 45 45" fill="none" xmlns="http://www.w3.org/2000/svg">
<path d="M13.125 22.5C13.125 23.4946 12.7299 24.4484 12.0267 25.1516C11.3234 25.8549 10.3696 26.25 9.375 26.25C8.38044 26.25 7.42661 25.8549 6.72335 25.1516C6.02009 24.4484 5.625 23.4946 5.625 22.5C5.625 21.5054 6.02009 20.5516 6.72335 19.8484C7.42661 19.1451 8.38044 18.75 9.375 18.75C10.3696 18.75 11.3234 19.1451 12.0267 19.8484C12.7299 20.5516 13.125 21.5054 13.125 22.5ZM26.25 22.5C26.25 23.4946 25.8549 24.4484 25.1516 25.1516C24.4484 25.8549 23.4946 26.25 22.5 26.25C21.5054 26.25 20.5516 25.8549 19.8484 25.1516C19.1451 24.4484 18.75 23.4946 18.75 22.5C18.75 21.5054 19.1451 20.5516 19.8484 19.8484C20.5516 19.1451 21.5054 18.75 22.5 18.75C23.4946 18.75 24.4484 19.1451 25.1516 19.8484C25.8549 20.5516 26.25 21.5054 26.25 22.5ZM39.375 22.5C39.375 23.4946 38.9799 24.4484 38.2766 25.1516C37.5734 25.8549 36.6196 26.25 35.625 26.25C34.6304 26.25 33.6766 25.8549 32.9734 25.1516C32.2701 24.4484 31.875 23.4946 31.875 22.5C31.875 21.5054 32.2701 20.5516 32.9734 19.8484C33.6766 19.1451 34.6304 18.75 35.625 18.75C36.6196 18.75 37.5734 19.1451 38.2766 19.8484C38.9799 20.5516 39.375 21.5054 39.375 22.5Z" fill="#429E6E"/>
</svg>
