<svg width="20" height="20" viewBox="0 0 20 20" fill="none" xmlns="http://www.w3.org/2000/svg">
<path d="M9.9987 1.66602C11.1038 1.66602 12.1636 2.105 12.945 2.8864C13.7264 3.66781 14.1654 4.72761 14.1654 5.83268V8.33268C14.8284 8.33268 15.4643 8.59607 15.9331 9.06491C16.402 9.53375 16.6654 10.1696 16.6654 10.8327V15.8327C16.6654 16.4957 16.402 17.1316 15.9331 17.6004C15.4643 18.0693 14.8284 18.3327 14.1654 18.3327H5.83203C5.16899 18.3327 4.53311 18.0693 4.06426 17.6004C3.59542 17.1316 3.33203 16.4957 3.33203 15.8327V10.8327C3.33203 10.1696 3.59542 9.53375 4.06426 9.06491C4.53311 8.59607 5.16899 8.33268 5.83203 8.33268V5.83268C5.83203 4.72761 6.27102 3.66781 7.05242 2.8864C7.83382 2.105 8.89363 1.66602 9.9987 1.66602ZM9.9987 11.666C9.57822 11.6659 9.17322 11.8247 8.86491 12.1106C8.55659 12.3965 8.36773 12.7884 8.3362 13.2077L8.33203 13.3327C8.33203 13.6623 8.42978 13.9845 8.61292 14.2586C8.79605 14.5327 9.05635 14.7463 9.36089 14.8725C9.66544 14.9986 10.0005 15.0316 10.3238 14.9673C10.6471 14.903 10.9441 14.7443 11.1772 14.5112C11.4103 14.2781 11.569 13.9811 11.6333 13.6578C11.6976 13.3345 11.6646 12.9994 11.5385 12.6949C11.4124 12.3903 11.1987 12.13 10.9246 11.9469C10.6506 11.7638 10.3283 11.666 9.9987 11.666ZM9.9987 3.33268C9.33566 3.33268 8.69977 3.59607 8.23093 4.06491C7.76209 4.53376 7.4987 5.16964 7.4987 5.83268V8.33268H12.4987V5.83268C12.4987 5.16964 12.2353 4.53376 11.7665 4.06491C11.2976 3.59607 10.6617 3.33268 9.9987 3.33268Z" fill="#5B5B5B"/>
</svg>
