<svg width="20" height="20" viewBox="0 0 20 20" fill="none" xmlns="http://www.w3.org/2000/svg">
<path d="M12.7 1.6665H9.455C7.985 1.6665 6.82 1.6665 5.90917 1.78984C4.97083 1.9165 4.21167 2.18317 3.61333 2.784C3.01417 3.38484 2.74833 4.14734 2.6225 5.089C2.5 6.004 2.5 7.17317 2.5 8.649V13.514C2.5 14.7707 3.26667 15.8473 4.35583 16.299C4.3 15.5407 4.3 14.4782 4.3 13.5932V9.41817C4.3 8.35067 4.3 7.42984 4.39833 6.69317C4.50417 5.90317 4.7425 5.1465 5.35417 4.53234C5.96583 3.91817 6.72 3.679 7.50667 3.57234C8.24 3.474 9.15667 3.474 10.2208 3.474H12.7792C13.8425 3.474 14.7575 3.474 15.4917 3.57234C15.2718 3.01092 14.8878 2.52879 14.3898 2.18882C13.8918 1.84886 13.303 1.66684 12.7 1.6665Z" fill="white"/>
<path d="M5.5 9.49739C5.5 7.22572 5.5 6.08989 6.20333 5.38406C6.90583 4.67822 8.03667 4.67822 10.3 4.67822H12.7C14.9625 4.67822 16.0942 4.67822 16.7975 5.38406C17.5008 6.08989 17.5 7.22572 17.5 9.49739V13.5141C17.5 15.7857 17.5 16.9216 16.7975 17.6274C16.0942 18.3332 14.9625 18.3332 12.7 18.3332H10.3C8.0375 18.3332 6.90583 18.3332 6.20333 17.6274C5.5 16.9216 5.5 15.7857 5.5 13.5141V9.49739Z" fill="white"/>
</svg>
