<svg width="23" height="23" viewBox="0 0 23 23" fill="none" xmlns="http://www.w3.org/2000/svg">
<path d="M5.75 10.541C5.75 7.83085 5.75 6.47481 6.59238 5.63339C7.43379 4.79102 8.78983 4.79102 11.5 4.79102H14.375C17.0852 4.79102 18.4412 4.79102 19.2826 5.63339C20.125 6.47481 20.125 7.83085 20.125 10.541V15.3327C20.125 18.0428 20.125 19.3989 19.2826 20.2403C18.4412 21.0827 17.0852 21.0827 14.375 21.0827H11.5C8.78983 21.0827 7.43379 21.0827 6.59238 20.2403C5.75 19.3989 5.75 18.0428 5.75 15.3327V10.541Z" stroke="black" stroke-width="1.5"/>
<path d="M5.75 18.2077C4.9875 18.2077 4.25624 17.9048 3.71707 17.3656C3.1779 16.8264 2.875 16.0952 2.875 15.3327V9.58268C2.875 5.96881 2.875 4.16139 3.99817 3.03918C5.12133 1.91697 6.92779 1.91602 10.5417 1.91602H14.375C15.1375 1.91602 15.8688 2.21892 16.4079 2.75808C16.9471 3.29725 17.25 4.02852 17.25 4.79102" stroke="black" stroke-width="1.5"/>
</svg>
