<svg width="17" height="17" viewBox="0 0 17 17" fill="none" xmlns="http://www.w3.org/2000/svg">
<path d="M4.25 7.79102C4.25 5.78785 4.25 4.78556 4.87263 4.16364C5.49454 3.54102 6.49683 3.54102 8.5 3.54102H10.625C12.6282 3.54102 13.6305 3.54102 14.2524 4.16364C14.875 4.78556 14.875 5.78785 14.875 7.79102V11.3327C14.875 13.3358 14.875 14.3381 14.2524 14.9601C13.6305 15.5827 12.6282 15.5827 10.625 15.5827H8.5C6.49683 15.5827 5.49454 15.5827 4.87263 14.9601C4.25 14.3381 4.25 13.3358 4.25 11.3327V7.79102Z" stroke="#0D7E42" stroke-width="1.5"/>
<path d="M4.25 13.4577C3.68641 13.4577 3.14591 13.2338 2.7474 12.8353C2.34888 12.4368 2.125 11.8963 2.125 11.3327V7.08268C2.125 4.41156 2.125 3.07564 2.95517 2.24618C3.78533 1.41672 5.12054 1.41602 7.79167 1.41602H10.625C11.1886 1.41602 11.7291 1.6399 12.1276 2.03841C12.5261 2.43693 12.75 2.97743 12.75 3.54102" stroke="#0D7E42" stroke-width="1.5"/>
</svg>
