<svg width="23" height="23" viewBox="0 0 23 23" fill="none" xmlns="http://www.w3.org/2000/svg">
<path d="M14.605 1.9165H10.8732C9.18275 1.9165 7.843 1.9165 6.79554 2.05834C5.71646 2.204 4.84342 2.51067 4.15533 3.20163C3.46629 3.89259 3.16058 4.76946 3.01588 5.85238C2.875 6.90463 2.875 8.24917 2.875 9.94638V15.5411C2.875 16.9863 3.75667 18.2245 5.00921 18.7439C4.945 17.8718 4.945 16.6499 4.945 15.6322V10.8309C4.945 9.6033 4.945 8.54434 5.05808 7.69717C5.17979 6.78867 5.45388 5.9185 6.15729 5.21221C6.86071 4.50592 7.728 4.23088 8.63267 4.10821C9.476 3.99513 10.5302 3.99513 11.754 3.99513H14.696C15.9189 3.99513 16.9711 3.99513 17.8154 4.10821C17.5625 3.46258 17.1209 2.90813 16.5483 2.51717C15.9756 2.12621 15.2984 1.91689 14.605 1.9165Z" fill="#429E6E"/>
<path d="M6.32422 10.9219C6.32422 8.30951 6.32422 7.0033 7.13305 6.19159C7.94093 5.37988 9.24138 5.37988 11.8442 5.37988H14.6042C17.2061 5.37988 18.5075 5.37988 19.3163 6.19159C20.1252 7.0033 20.1242 8.30951 20.1242 10.9219V15.5411C20.1242 18.1535 20.1242 19.4597 19.3163 20.2714C18.5075 21.0831 17.2061 21.0831 14.6042 21.0831H11.8442C9.24234 21.0831 7.94093 21.0831 7.13305 20.2714C6.32422 19.4597 6.32422 18.1535 6.32422 15.5411V10.9219Z" fill="#429E6E"/>
</svg>
