<svg width="16" height="16" viewBox="0 0 16 16" fill="none" xmlns="http://www.w3.org/2000/svg">
<path d="M4.66537 9.00016C4.94314 9.00016 5.17937 8.90305 5.37403 8.70883C5.5687 8.51461 5.66581 8.27838 5.66537 8.00016C5.66492 7.72194 5.56781 7.48594 5.37403 7.29216C5.18025 7.09838 4.94403 7.00105 4.66537 7.00016C4.3867 6.99927 4.1507 7.09661 3.95737 7.29216C3.76403 7.48772 3.6667 7.72372 3.66537 8.00016C3.66403 8.27661 3.76137 8.51283 3.95737 8.70883C4.15337 8.90483 4.38937 9.00194 4.66537 9.00016ZM7.9987 9.00016C8.27648 9.00016 8.5127 8.90305 8.70737 8.70883C8.90203 8.51461 8.99914 8.27838 8.9987 8.00016C8.99825 7.72194 8.90114 7.48594 8.70737 7.29216C8.51359 7.09838 8.27737 7.00105 7.9987 7.00016C7.72003 6.99927 7.48403 7.09661 7.2907 7.29216C7.09737 7.48772 7.00003 7.72372 6.9987 8.00016C6.99737 8.27661 7.0947 8.51283 7.2907 8.70883C7.4867 8.90483 7.7227 9.00194 7.9987 9.00016ZM11.332 9.00016C11.6098 9.00016 11.846 8.90305 12.0407 8.70883C12.2354 8.51461 12.3325 8.27838 12.332 8.00016C12.3316 7.72194 12.2345 7.48594 12.0407 7.29216C11.8469 7.09838 11.6107 7.00105 11.332 7.00016C11.0534 6.99927 10.8174 7.09661 10.624 7.29216C10.4307 7.48772 10.3334 7.72372 10.332 8.00016C10.3307 8.27661 10.428 8.51283 10.624 8.70883C10.82 8.90483 11.056 9.00194 11.332 9.00016ZM7.9987 14.6668C7.07648 14.6668 6.20981 14.4917 5.3987 14.1415C4.58759 13.7913 3.88203 13.3164 3.28203 12.7168C2.68203 12.1173 2.20714 11.4117 1.85737 10.6002C1.50759 9.78861 1.33248 8.92194 1.33203 8.00016C1.33159 7.07838 1.5067 6.21172 1.85737 5.40016C2.20803 4.58861 2.68292 3.88305 3.28203 3.2835C3.88114 2.68394 4.5867 2.20905 5.3987 1.85883C6.2107 1.50861 7.07737 1.3335 7.9987 1.3335C8.92003 1.3335 9.7867 1.50861 10.5987 1.85883C11.4107 2.20905 12.1163 2.68394 12.7154 3.2835C13.3145 3.88305 13.7896 4.58861 14.1407 5.40016C14.4918 6.21172 14.6667 7.07838 14.6654 8.00016C14.664 8.92194 14.4889 9.78861 14.14 10.6002C13.7911 11.4117 13.3163 12.1173 12.7154 12.7168C12.1145 13.3164 11.4089 13.7915 10.5987 14.1422C9.78848 14.4928 8.92181 14.6677 7.9987 14.6668ZM7.9987 13.3335C9.48759 13.3335 10.7487 12.8168 11.782 11.7835C12.8154 10.7502 13.332 9.48905 13.332 8.00016C13.332 6.51127 12.8154 5.25016 11.782 4.21683C10.7487 3.1835 9.48759 2.66683 7.9987 2.66683C6.50981 2.66683 5.2487 3.1835 4.21537 4.21683C3.18203 5.25016 2.66537 6.51127 2.66537 8.00016C2.66537 9.48905 3.18203 10.7502 4.21537 11.7835C5.2487 12.8168 6.50981 13.3335 7.9987 13.3335Z" fill="#CC8500"/>
</svg>
