<svg width="31" height="31" viewBox="0 0 31 31" fill="none" xmlns="http://www.w3.org/2000/svg">
<g clip-path="url(#clip0_1_50874)">
<path d="M4.32289 27.8713H26.6766C29.3753 27.8713 30.7509 26.5217 30.7509 23.8491V10.265C30.7509 7.59235 29.3753 6.25603 26.6766 6.25603H23.6409C22.6289 6.25603 22.3178 6.04844 21.7338 5.39966L20.6826 4.23162C20.0471 3.51862 19.3856 3.12891 18.036 3.12891H12.8722C11.5359 3.12891 10.8738 3.51862 10.2256 4.23162L9.17439 5.39966C8.60365 6.03516 8.27926 6.25603 7.26733 6.25603H4.32233C1.62367 6.25603 0.248047 7.59235 0.248047 10.265V23.8491C0.248047 26.5217 1.62423 27.8713 4.32289 27.8713ZM20.9942 20.8133L18.5552 17.5954C18.2175 17.1542 18.4384 16.5835 18.9571 16.5835H20.7086C20.7086 13.4176 18.5419 11.2122 15.4928 11.2122C14.533 11.2122 13.7546 11.4458 12.963 11.8737C12.0806 12.3021 11.4064 11.7962 11.4064 11.1601C11.4064 10.849 11.5487 10.4986 11.9251 10.265C12.7554 9.75903 14.053 9.31784 15.4928 9.31784C19.6319 9.31784 22.6284 12.3282 22.6284 16.5835H24.1728C24.7043 16.5835 24.8997 17.1415 24.562 17.5954L22.1097 20.8133C21.8373 21.1764 21.2926 21.1897 20.9942 20.8133ZM15.4928 23.5767C11.3543 23.5767 8.37005 20.4236 8.37005 16.3111H6.82614C6.28142 16.3111 6.09985 15.7404 6.43697 15.2859L8.8893 12.0685C9.16165 11.7181 9.70637 11.6921 9.99201 12.0685L12.4443 15.2859C12.7815 15.7398 12.5606 16.3111 12.0292 16.3111H10.2771C10.2771 19.3209 12.4443 21.6697 15.4928 21.6697C16.466 21.6697 17.2576 21.4361 18.0227 21.0209C18.9311 20.567 19.5799 21.1117 19.5799 21.7732C19.5799 22.0849 19.4243 22.3832 19.0612 22.6296C18.2435 23.161 16.92 23.5767 15.4928 23.5767Z" fill="white"/>
</g>
<defs>
<clipPath id="clip0_1_50874">
<rect width="31" height="31" fill="white"/>
</clipPath>
</defs>
</svg>
