<svg width="24" height="24" viewBox="0 0 24 24" fill="none" xmlns="http://www.w3.org/2000/svg">
<path d="M12 12C13.6569 12 15 10.6569 15 9C15 7.34315 13.6569 6 12 6C10.3431 6 9 7.34315 9 9C9 10.6569 10.3431 12 12 12Z" fill="black"/>
<path fill-rule="evenodd" clip-rule="evenodd" d="M17.4506 15.908C17.4774 15.9584 17.4854 16.0166 17.4731 16.0723C17.4608 16.128 17.4291 16.1776 17.3836 16.212C15.83 17.3754 13.9406 18.0029 11.9996 18C10.0586 18.0029 8.16924 17.3754 6.61561 16.212C6.57013 16.1776 6.53841 16.128 6.52613 16.0723C6.51386 16.0166 6.52182 15.9584 6.5486 15.908C7.4986 14.192 9.58161 13 11.9996 13C14.4176 13 16.5006 14.191 17.4506 15.908Z" fill="black"/>
<path d="M17 4H17.502C18.713 4 19.319 4 19.783 4.232C20.2094 4.44497 20.555 4.79064 20.768 5.217C21 5.68 21 6.287 21 7.498V8M17 20H17.502C18.713 20 19.319 20 19.783 19.768C20.2094 19.555 20.555 19.2094 20.768 18.783C21 18.319 21 17.713 21 16.502V16M7 4H6.498C5.287 4 4.681 4 4.217 4.232C3.79064 4.44497 3.44497 4.79064 3.232 5.217C3 5.68 3 6.287 3 7.498V8M7 20H6.498C5.287 20 4.681 20 4.217 19.768C3.79064 19.555 3.44497 19.2094 3.232 18.783C3 18.32 3 17.713 3 16.502V16" stroke="black" stroke-width="2" stroke-linecap="round"/>
</svg>
