<svg width="20" height="20" viewBox="0 0 20 20" fill="none" xmlns="http://www.w3.org/2000/svg">
<path d="M5.83236 17.5009C5.30458 17.5009 4.80819 17.3828 4.34319 17.1467C3.87819 16.9106 3.48569 16.5842 3.16569 16.1675C2.84569 15.7509 2.63736 15.2823 2.54069 14.7617C2.44403 14.2411 2.4718 13.7306 2.62403 13.23L3.12403 11.5217L2.49903 2.62586L4.16569 2.50086C5.08236 2.43142 5.88458 2.70225 6.57236 3.31336C7.26014 3.92447 7.63847 4.68836 7.70736 5.60503L7.89486 8.0842C7.9643 9.00086 7.69708 9.80642 7.09319 10.5009C6.4893 11.1953 5.72875 11.5773 4.81153 11.6467L4.22819 13.6884C4.15875 13.9384 4.14819 14.1953 4.19653 14.4592C4.24486 14.7231 4.34569 14.9592 4.49903 15.1675C4.56847 15.2509 4.64486 15.3273 4.72819 15.3967C4.81153 15.4661 4.90875 15.5356 5.01986 15.605C5.0893 14.73 5.44014 13.9939 6.07236 13.3967C6.70458 12.7995 7.45791 12.5009 8.33236 12.5009H14.1657C15.0824 12.5009 15.8671 12.8273 16.5199 13.48C17.1726 14.1328 17.499 14.9175 17.499 15.8342V17.5009H5.83236Z" fill="#5B5B5B"/>
</svg>
