<svg width="18" height="18" viewBox="0 0 18 18" fill="none" xmlns="http://www.w3.org/2000/svg">
<path d="M6 13.5L5.25 16.5M12 13.5L12.75 16.5" stroke="#429E6E" stroke-width="1.5" stroke-linecap="round" stroke-linejoin="round"/>
<path d="M13.5 6.75C12.2227 6.75 12 8.25 12 8.25C11.8225 8.96008 11.7447 10.6081 11.126 11.0912C10.9225 11.25 10.6413 11.25 10.0788 11.25H7.92116C7.3587 11.25 7.07747 11.25 6.87402 11.0912C6.25529 10.6081 6.17752 8.96008 6 8.25C6 8.25 5.77734 6.75 4.5 6.75C3.67157 6.75 3 7.42157 3 8.25C3 8.80521 3.30165 9.28997 3.75 9.54933L4.0367 11.0595C4.25833 12.227 4.36914 12.8107 4.78538 13.1553C5.20162 13.5 5.79577 13.5 6.98406 13.5H11.0159C12.2042 13.5 12.7984 13.5 13.2146 13.1553C13.6309 12.8107 13.7417 12.227 13.9633 11.0595L14.25 9.54933C14.6984 9.28997 15 8.80521 15 8.25C15 7.42157 14.3284 6.75 13.5 6.75Z" stroke="#429E6E" stroke-width="1.5" stroke-linecap="round" stroke-linejoin="round"/>
<path d="M6.375 9.375C7.07458 8.90823 7.99354 8.625 9 8.625C10.0065 8.625 10.9254 8.90823 11.625 9.375" stroke="#429E6E" stroke-width="1.5" stroke-linecap="round"/>
<path d="M5.26225 6.75L5.12417 5.78033C4.8406 3.78877 4.69881 2.79299 5.25768 2.1465C5.81655 1.5 6.81915 1.5 8.82436 1.5H9.17564C11.1808 1.5 12.1834 1.5 12.7423 2.1465C13.3012 2.79299 13.1594 3.78877 12.8758 5.78033L12.7378 6.75" stroke="#429E6E" stroke-width="1.5" stroke-linecap="round" stroke-linejoin="round"/>
</svg>
