<svg width="20" height="20" viewBox="0 0 20 20" fill="none" xmlns="http://www.w3.org/2000/svg">
<path d="M11.3137 14.3927L7.05541 12.0702C6.64666 12.4759 6.12692 12.7516 5.56174 12.8624C4.99655 12.9732 4.41121 12.9141 3.87952 12.6928C3.34782 12.4714 2.89357 12.0975 2.57404 11.6183C2.2545 11.1392 2.08398 10.5761 2.08398 10.0002C2.08398 9.42423 2.2545 8.86118 2.57404 8.382C2.89357 7.90282 3.34782 7.52898 3.87952 7.30759C4.41121 7.0862 4.99655 7.02719 5.56174 7.13798C6.12692 7.24878 6.64666 7.52443 7.05541 7.93017L11.3137 5.60767C11.1677 4.92245 11.2732 4.20756 11.6109 3.59372C11.9486 2.97988 12.496 2.50812 13.153 2.2647C13.81 2.02129 14.5326 2.02249 15.1888 2.26808C15.8449 2.51367 16.3907 2.98725 16.7264 3.6022C17.0621 4.21716 17.1652 4.9324 17.0169 5.61713C16.8686 6.30187 16.4787 6.91033 15.9187 7.33126C15.3586 7.75218 14.6657 7.95744 13.9668 7.9095C13.2678 7.86156 12.6094 7.56363 12.1121 7.07017L7.85375 9.39267C7.93892 9.79291 7.93892 10.2066 7.85375 10.6068L12.1121 12.9302C12.6094 12.4367 13.2678 12.1388 13.9668 12.0908C14.6657 12.0429 15.3586 12.2482 15.9187 12.6691C16.4787 13.09 16.8686 13.6985 17.0169 14.3832C17.1652 15.0679 17.0621 15.7832 16.7264 16.3981C16.3907 17.0131 15.8449 17.4867 15.1888 17.7323C14.5326 17.9779 13.81 17.9791 13.153 17.7356C12.496 17.4922 11.9486 17.0205 11.6109 16.4066C11.2732 15.7928 11.1677 15.0779 11.3137 14.3927Z" fill="#5B5B5B"/>
</svg>
