<svg width="24" height="24" viewBox="0 0 24 24" fill="none" xmlns="http://www.w3.org/2000/svg">
<path d="M21.328 8.0001H18.4L17.776 4.2721C17.6503 3.70805 17.3742 3.18857 16.977 2.76883C16.5798 2.34908 16.0763 2.04473 15.52 1.8881C14.961 1.70918 14.3789 1.61218 13.792 1.6001H10.208C9.62116 1.61218 9.03912 1.70918 8.48004 1.8881C7.92378 2.04473 7.42032 2.34908 7.02311 2.76883C6.6259 3.18857 6.34977 3.70805 6.22404 4.2721L5.60004 8.0001H2.67204C2.54602 7.99933 2.42161 8.02835 2.30893 8.08478C2.19625 8.14122 2.0985 8.22347 2.02364 8.32485C1.94878 8.42622 1.89893 8.54385 1.87814 8.66814C1.85736 8.79244 1.86623 8.91988 1.90404 9.0401L4.91204 19.1201C5.06518 19.607 5.36959 20.0325 5.78105 20.3346C6.19251 20.6367 6.68958 20.7998 7.20004 20.8001H16.8C17.3078 20.7964 17.8012 20.6318 18.2095 20.3299C18.6177 20.028 18.9197 19.6045 19.072 19.1201L22.08 9.0401C22.1175 8.92117 22.1266 8.79514 22.1066 8.67207C22.0867 8.549 22.0382 8.43229 21.9652 8.33126C21.8921 8.23023 21.7965 8.14768 21.6859 8.09018C21.5752 8.03268 21.4527 8.00183 21.328 8.0001ZM7.23204 8.0001L7.80804 4.5281C7.87118 4.24462 8.01766 3.9865 8.22865 3.78691C8.43964 3.58733 8.70549 3.45541 8.99204 3.4081C9.38564 3.2833 9.79524 3.2145 10.208 3.2001H13.792C14.2112 3.21396 14.6219 3.2833 15.024 3.4081C15.3106 3.45541 15.5764 3.58733 15.7874 3.78691C15.9984 3.9865 16.1449 4.24462 16.208 4.5281L16.768 8.0001H7.16804H7.23204Z" fill="white"/>
</svg>
