<svg width="20" height="20" viewBox="0 0 20 20" fill="none" xmlns="http://www.w3.org/2000/svg">
<path d="M8.7276 7.05876C8.84479 6.94172 9.00365 6.87598 9.16927 6.87598C9.3349 6.87598 9.49375 6.94172 9.61094 7.05876L12.1109 9.55876C12.228 9.67595 12.2937 9.8348 12.2937 10.0004C12.2937 10.1661 12.228 10.3249 12.1109 10.4421L9.61094 12.9421C9.55372 13.0035 9.48472 13.0528 9.40805 13.0869C9.33139 13.1211 9.24863 13.1394 9.16471 13.1409C9.08079 13.1424 8.99743 13.127 8.91961 13.0955C8.84178 13.0641 8.77109 13.0173 8.71174 12.958C8.65239 12.8986 8.6056 12.8279 8.57417 12.7501C8.54273 12.6723 8.5273 12.5889 8.52878 12.505C8.53026 12.4211 8.54863 12.3383 8.58279 12.2616C8.61695 12.185 8.6662 12.116 8.7276 12.0588L10.1609 10.6254H3.33594C3.17018 10.6254 3.01121 10.5596 2.894 10.4424C2.77679 10.3252 2.71094 10.1662 2.71094 10.0004C2.71094 9.83467 2.77679 9.6757 2.894 9.55849C3.01121 9.44128 3.17018 9.37543 3.33594 9.37543H10.1609L8.7276 7.94209C8.61056 7.82491 8.54482 7.66605 8.54482 7.50043C8.54482 7.3348 8.61056 7.17595 8.7276 7.05876Z" fill="black"/>
<path d="M9.80927 2.70801H11.8626C12.5401 2.70801 13.0868 2.70801 13.5293 2.74384C13.9843 2.78134 14.3843 2.86051 14.7543 3.04884C15.3427 3.34832 15.8211 3.82646 16.1209 4.41467C16.3093 4.78467 16.3876 5.18467 16.4251 5.63967C16.4609 6.08217 16.4609 6.62884 16.4609 7.30634V12.693C16.4609 13.3705 16.4609 13.9172 16.4251 14.3597C16.3876 14.8147 16.3084 15.2147 16.1201 15.5847C15.8206 16.1731 15.3425 16.6515 14.7543 16.9513C14.3843 17.1397 13.9843 17.218 13.5293 17.2555C13.0868 17.2913 12.5401 17.2913 11.8626 17.2913H9.80927C9.13177 17.2913 8.5851 17.2913 8.1426 17.2555C7.6876 17.218 7.2876 17.1388 6.9176 16.9505C6.32921 16.651 5.85077 16.1729 5.55094 15.5847C5.3626 15.2147 5.28427 14.8147 5.24677 14.3597C5.21094 13.9172 5.21094 13.3705 5.21094 12.693V12.4997C5.21094 12.3339 5.27679 12.1749 5.394 12.0577C5.51121 11.9405 5.67018 11.8747 5.83594 11.8747C6.0017 11.8747 6.16067 11.9405 6.27788 12.0577C6.39509 12.1749 6.46094 12.3339 6.46094 12.4997V12.6663C6.46094 13.3763 6.46094 13.8722 6.4926 14.258C6.52344 14.6355 6.58177 14.853 6.6651 15.018C6.8451 15.3705 7.13177 15.6572 7.4851 15.8372C7.64927 15.9205 7.86677 15.9788 8.2451 16.0097C8.6301 16.0405 9.1251 16.0413 9.83594 16.0413H11.8359C12.5468 16.0413 13.0418 16.0413 13.4276 16.0097C13.8051 15.978 14.0226 15.9205 14.1876 15.8372C14.5403 15.6574 14.827 15.3707 15.0068 15.018C15.0901 14.853 15.1484 14.6355 15.1793 14.2572C15.2101 13.8722 15.2109 13.3763 15.2109 12.6663V7.33301C15.2109 6.62301 15.2109 6.12717 15.1793 5.74134C15.1476 5.36384 15.0901 5.14634 15.0068 4.98217C14.8272 4.62919 14.5404 4.34213 14.1876 4.16217C14.0226 4.07884 13.8051 4.02051 13.4268 3.98967C13.0418 3.95884 12.5459 3.95801 11.8359 3.95801H9.83594C9.1251 3.95801 8.6301 3.95801 8.24427 3.98967C7.86677 4.02051 7.64927 4.07884 7.4851 4.16217C7.13199 4.34199 6.84492 4.62906 6.6651 4.98217C6.58177 5.14634 6.52344 5.36384 6.4926 5.74217C6.46177 6.12717 6.46094 6.62301 6.46094 7.33301V7.49967C6.46094 7.66543 6.39509 7.82441 6.27788 7.94162C6.16067 8.05883 6.0017 8.12467 5.83594 8.12467C5.67018 8.12467 5.51121 8.05883 5.394 7.94162C5.27679 7.82441 5.21094 7.66543 5.21094 7.49967V7.30634C5.21094 6.62884 5.21094 6.08217 5.24677 5.63967C5.28427 5.18467 5.36344 4.78467 5.55177 4.41467C5.85125 3.82628 6.32939 3.34784 6.9176 3.04801C7.2876 2.85967 7.6876 2.78134 8.1426 2.74384C8.5851 2.70801 9.13177 2.70801 9.80927 2.70801Z" fill="#5B5B5B"/>
</svg>
