<svg width="18" height="18" viewBox="0 0 18 18" fill="none" xmlns="http://www.w3.org/2000/svg">
<path d="M0 8.70833C0 4.60319 0 2.55061 1.27531 1.27531C2.55061 0 4.60319 0 8.70833 0C12.8135 0 14.8661 0 16.1414 1.27531C17.4167 2.55061 17.4167 4.60319 17.4167 8.70833C17.4167 12.8135 17.4167 14.8661 16.1414 16.1414C14.8661 17.4167 12.8135 17.4167 8.70833 17.4167C4.60319 17.4167 2.55061 17.4167 1.27531 16.1414C0 14.8661 0 12.8135 0 8.70833Z" fill="#429E6E"/>
<path d="M5.04297 10.3132C5.04297 10.3132 6.50964 11.1496 7.24297 12.3757C7.24297 12.3757 9.44297 7.56315 12.3763 5.95898" stroke="white" stroke-width="1.375" stroke-linecap="round" stroke-linejoin="round"/>
</svg>
