<svg width="20" height="20" viewBox="0 0 20 20" fill="none" xmlns="http://www.w3.org/2000/svg">
<g clip-path="url(#clip0_1_49236)">
<path fill-rule="evenodd" clip-rule="evenodd" d="M14.7639 7.38156C13.7857 7.31494 12.894 7.96088 12.7453 8.99844C12.662 9.57978 12.5937 10.4118 12.5937 11.5781C12.5937 12.7449 12.662 13.5769 12.7453 14.1582C12.9009 15.2445 13.8714 15.9014 14.9025 15.7605C15.8641 15.6288 16.8114 15.3672 17.4241 15.1763C18.1155 14.961 18.6944 14.4097 18.8671 13.6443C19.0182 12.966 19.0943 12.2731 19.0937 11.5781C19.0937 10.7299 18.98 10.0149 18.8671 9.51234C18.7155 8.84 18.2508 8.33341 17.6719 8.07381C17.6426 3.93656 14.0969 0.609375 9.75 0.609375C5.40312 0.609375 1.85737 3.93656 1.82812 8.07381C1.24921 8.33341 0.784464 8.84 0.632933 9.51194C0.519588 10.0149 0.406246 10.7299 0.406246 11.5781C0.406246 12.4264 0.519995 13.1414 0.632933 13.6443C0.796652 14.3707 1.32599 14.9037 1.97031 15.1405C2.40012 16.5498 3.25406 17.524 4.57843 18.1151C5.89062 18.7001 7.62206 18.8898 9.75 18.8898C9.96549 18.8898 10.1721 18.8042 10.3245 18.6518C10.4769 18.4995 10.5625 18.2928 10.5625 18.0773C10.5625 17.8618 10.4769 17.6552 10.3245 17.5028C10.1721 17.3504 9.96549 17.2648 9.75 17.2648C7.66593 17.2648 6.22415 17.0698 5.24062 16.6311C4.7125 16.3954 4.30624 16.0855 4.00156 15.6634C4.19818 15.7002 4.3967 15.7327 4.59712 15.7609C5.62859 15.9014 6.59912 15.2445 6.75431 14.1582C6.838 13.5769 6.90625 12.7445 6.90625 11.5785C6.90625 10.4118 6.838 9.57978 6.75472 8.99803C6.60603 7.96088 5.71431 7.31494 4.73565 7.38156C5.12281 5.16506 7.20809 3.45313 9.75 3.45313C12.2919 3.45313 14.3776 5.16506 14.7639 7.38156ZM14.6827 9.00575C14.571 8.99072 14.495 9.01956 14.4503 9.05206C14.4081 9.08253 14.3674 9.13453 14.354 9.22838C14.2837 9.71994 14.2187 10.4735 14.2187 11.5781C14.2187 12.6831 14.2837 13.4363 14.354 13.9279C14.3674 14.0217 14.4085 14.0741 14.4503 14.1046C14.495 14.1371 14.571 14.1655 14.6827 14.1505C15.5163 14.0368 16.3666 13.8036 16.9406 13.6248C17.1368 13.5639 17.2498 13.4286 17.2819 13.2872C17.4066 12.7261 17.4693 12.153 17.4687 11.5781C17.4687 10.8729 17.3741 10.2793 17.2819 9.86944C17.2498 9.72806 17.1368 9.59278 16.9406 9.53144C16.3666 9.35269 15.5163 9.11991 14.6827 9.00575ZM5.04968 9.05206C5.09153 9.08253 5.13256 9.13453 5.14596 9.22838C5.21625 9.71994 5.28125 10.4735 5.28125 11.5781C5.28125 12.6831 5.21625 13.4363 5.14596 13.9279C5.13256 14.0217 5.09153 14.0741 5.04968 14.1046C5.005 14.1371 4.92903 14.1655 4.81731 14.1505C3.98368 14.0368 3.1334 13.8036 2.55937 13.6248C2.36315 13.5639 2.25021 13.4286 2.21812 13.2872C2.1259 12.8769 2.03125 12.2838 2.03125 11.5781C2.03073 11.0034 2.0934 10.4304 2.21812 9.86944C2.25021 9.72806 2.36315 9.59278 2.55937 9.53144C3.1334 9.35269 3.98368 9.11991 4.81731 9.00575C4.92903 8.99072 5.005 9.01956 5.04968 9.05206Z" fill="white"/>
</g>
<defs>
<clipPath id="clip0_1_49236">
<rect width="19.5" height="19.5" fill="white" transform="matrix(-1 0 0 1 19.5 0)"/>
</clipPath>
</defs>
</svg>
