<svg width="21" height="21" viewBox="0 0 21 21" fill="none" xmlns="http://www.w3.org/2000/svg">
<path d="M10.5 11.725L13.0375 14.2625C13.1979 14.4229 13.4021 14.5031 13.65 14.5031C13.8979 14.5031 14.1021 14.4229 14.2625 14.2625C14.4229 14.1021 14.5031 13.8979 14.5031 13.65C14.5031 13.4021 14.4229 13.1979 14.2625 13.0375L11.725 10.5L14.2625 7.9625C14.4229 7.80208 14.5031 7.59792 14.5031 7.35C14.5031 7.10208 14.4229 6.89792 14.2625 6.7375C14.1021 6.57708 13.8979 6.49688 13.65 6.49688C13.4021 6.49688 13.1979 6.57708 13.0375 6.7375L10.5 9.275L7.9625 6.7375C7.80208 6.57708 7.59792 6.49688 7.35 6.49688C7.10208 6.49688 6.89792 6.57708 6.7375 6.7375C6.57708 6.89792 6.49688 7.10208 6.49688 7.35C6.49688 7.59792 6.57708 7.80208 6.7375 7.9625L9.275 10.5L6.7375 13.0375C6.57708 13.1979 6.49688 13.4021 6.49688 13.65C6.49688 13.8979 6.57708 14.1021 6.7375 14.2625C6.89792 14.4229 7.10208 14.5031 7.35 14.5031C7.59792 14.5031 7.80208 14.4229 7.9625 14.2625L10.5 11.725ZM10.5 19.25C9.28958 19.25 8.15208 19.0202 7.0875 18.5605C6.02292 18.1008 5.09688 17.4775 4.30938 16.6906C3.52188 15.9037 2.89858 14.9777 2.4395 13.9125C1.98042 12.8473 1.75058 11.7098 1.75 10.5C1.74942 9.29017 1.97925 8.15267 2.4395 7.0875C2.89975 6.02233 3.52304 5.09629 4.30938 4.30938C5.09571 3.52246 6.02175 2.89917 7.0875 2.4395C8.15325 1.97983 9.29075 1.75 10.5 1.75C11.7093 1.75 12.8468 1.97983 13.9125 2.4395C14.9783 2.89917 15.9043 3.52246 16.6906 4.30938C17.477 5.09629 18.1005 6.02233 18.5614 7.0875C19.0222 8.15267 19.2518 9.29017 19.25 10.5C19.2483 11.7098 19.0184 12.8473 18.5605 13.9125C18.1026 14.9777 17.4793 15.9037 16.6906 16.6906C15.902 17.4775 14.9759 18.1011 13.9125 18.5614C12.8491 19.0216 11.7116 19.2512 10.5 19.25Z" fill="#FF3336"/>
</svg>
