<svg width="20" height="20" viewBox="0 0 20 20" fill="none" xmlns="http://www.w3.org/2000/svg">
<path d="M0.832031 6.66732H19.1654M0.832031 10.0007H19.1654M16.6654 12.5007H14.1654M2.83203 3.33398H17.1654C17.6958 3.33398 18.2045 3.5447 18.5796 3.91977C18.9547 4.29484 19.1654 4.80355 19.1654 5.33398V14.6673C19.1654 15.1977 18.9547 15.7065 18.5796 16.0815C18.2045 16.4566 17.6958 16.6673 17.1654 16.6673H2.83203C2.3016 16.6673 1.79289 16.4566 1.41782 16.0815C1.04274 15.7065 0.832031 15.1977 0.832031 14.6673V5.33398C0.832031 4.80355 1.04274 4.29484 1.41782 3.91977C1.79289 3.5447 2.3016 3.33398 2.83203 3.33398Z" stroke="black" stroke-width="1.5" stroke-miterlimit="10" stroke-linecap="round" stroke-linejoin="round"/>
</svg>
