<svg width="24" height="24" viewBox="0 0 24 24" fill="none" xmlns="http://www.w3.org/2000/svg">
<path d="M6.25093 7C6.25093 5.47501 6.85673 4.01247 7.93506 2.93414C9.0134 1.8558 10.4759 1.25 12.0009 1.25C13.5259 1.25 14.9885 1.8558 16.0668 2.93414C17.1451 4.01247 17.7509 5.47501 17.7509 7C17.7509 8.52499 17.1451 9.98753 16.0668 11.0659C14.9885 12.1442 13.5259 12.75 12.0009 12.75C10.4759 12.75 9.0134 12.1442 7.93506 11.0659C6.85673 9.98753 6.25093 8.52499 6.25093 7ZM11.7989 14.261C11.842 14.2545 11.8854 14.2508 11.9289 14.25H12.0729C12.1169 14.25 12.1603 14.2537 12.2029 14.261L19.4979 15.544L19.5359 15.552C20.8799 15.862 22.3239 16.715 22.6049 18.372L22.6089 18.401L22.7229 19.278V19.28C22.9869 21.289 21.3939 22.75 19.5129 22.75C19.4714 22.7492 19.43 22.7459 19.3889 22.74H4.48893C2.60793 22.74 1.01393 21.278 1.27893 19.268L1.39293 18.399L1.39793 18.369C1.67793 16.742 3.13393 15.841 4.47493 15.55L4.50393 15.544L11.7989 14.261Z" fill="#8D8D8D"/>
</svg>
