<svg width="43" height="43" viewBox="0 0 43 43" fill="none" xmlns="http://www.w3.org/2000/svg">
<path d="M25.0843 7.16699H17.9176C11.1612 7.16699 7.78215 7.16699 5.68411 9.26683C4.17194 10.7772 3.74911 12.9523 3.63086 16.5732H39.371C39.2528 12.9523 38.8299 10.7772 37.3178 9.26683C35.2197 7.16699 31.8407 7.16699 25.0843 7.16699Z" fill="#73A88C"/>
<path fill-rule="evenodd" clip-rule="evenodd" d="M25.084 35.8337H17.9173C11.1609 35.8337 7.78186 35.8337 5.68382 33.7338C3.58578 31.634 3.58398 28.2567 3.58398 21.5003C3.58398 20.7096 3.58518 19.9631 3.58757 19.2607H39.4137C39.4161 19.9631 39.4173 20.7096 39.4173 21.5003C39.4173 28.2567 39.4173 31.6358 37.3175 33.7338C35.2177 35.8319 31.8404 35.8337 25.084 35.8337ZM28.7479 21.9482C29.5237 21.9482 30.235 21.9482 30.8119 22.0253C31.4498 22.1113 32.1217 22.312 32.6753 22.8674C33.2289 23.4228 33.4314 24.0929 33.5174 24.7307C33.5944 25.3094 33.5944 26.0207 33.5944 26.7947V26.956C33.5944 27.7317 33.5944 28.443 33.5174 29.02C33.4314 29.6578 33.2307 30.3297 32.6753 30.8833C32.1199 31.4369 31.4498 31.6394 30.8119 31.7254C30.2332 31.8024 29.5219 31.8024 28.7479 31.8024H28.5867C27.8109 31.8024 27.0996 31.8024 26.5227 31.7254C25.8849 31.6394 25.213 31.4387 24.6594 30.8833C24.1057 30.3279 23.9033 29.6578 23.8173 29.02C23.7402 28.4412 23.7402 27.73 23.7402 26.956V26.7947C23.7402 26.0189 23.7402 25.3076 23.8173 24.7307C23.9033 24.0929 24.1039 23.421 24.6594 22.8674C25.2148 22.3137 25.8849 22.1113 26.5227 22.0253C27.1014 21.9482 27.8127 21.9482 28.5867 21.9482H28.7479ZM9.4069 24.1878C9.4069 23.8314 9.54848 23.4897 9.80048 23.2377C10.0525 22.9857 10.3943 22.8441 10.7507 22.8441H14.334C14.6904 22.8441 15.0322 22.9857 15.2842 23.2377C15.5362 23.4897 15.6777 23.8314 15.6777 24.1878C15.6777 24.5442 15.5362 24.886 15.2842 25.138C15.0322 25.39 14.6904 25.5316 14.334 25.5316H10.7507C10.3943 25.5316 10.0525 25.39 9.80048 25.138C9.54848 24.886 9.4069 24.5442 9.4069 24.1878ZM9.4069 29.5628C9.4069 29.2064 9.54848 28.8647 9.80048 28.6127C10.0525 28.3607 10.3943 28.2191 10.7507 28.2191H17.9173C18.2737 28.2191 18.6155 28.3607 18.8675 28.6127C19.1195 28.8647 19.2611 29.2064 19.2611 29.5628C19.2611 29.9192 19.1195 30.261 18.8675 30.513C18.6155 30.765 18.2737 30.9066 17.9173 30.9066H10.7507C10.3943 30.9066 10.0525 30.765 9.80048 30.513C9.54848 30.261 9.4069 29.9192 9.4069 29.5628Z" fill="#73A88C"/>
<path d="M26.5585 24.7665L26.5639 24.7647L26.5818 24.7558C26.6785 24.7215 26.779 24.6993 26.881 24.6895C27.2573 24.6393 27.784 24.6357 28.6673 24.6357C29.5506 24.6357 30.0774 24.6393 30.4536 24.6895C30.5621 24.7007 30.6687 24.726 30.7707 24.7647L30.7761 24.7665L30.7779 24.7719L30.7869 24.7898C30.803 24.8292 30.8299 24.9152 30.8532 25.089C30.9033 25.4653 30.9069 25.992 30.9069 26.8753C30.9069 27.7586 30.9033 28.2854 30.8532 28.6616C30.842 28.7701 30.8167 28.8768 30.7779 28.9787L30.7761 28.9841L30.7707 28.9859L30.7528 28.9949C30.6562 29.0291 30.5557 29.0514 30.4536 29.0612C30.0774 29.1113 29.5506 29.1149 28.6673 29.1149C27.784 29.1149 27.2573 29.1113 26.881 29.0612C26.7725 29.05 26.6659 29.0247 26.5639 28.9859L26.5585 28.9841L26.5567 28.9787L26.5478 28.9608C26.5135 28.8642 26.4913 28.7637 26.4815 28.6616C26.4313 28.2854 26.4277 27.7586 26.4277 26.8753C26.4277 25.992 26.4313 25.4653 26.4815 25.089C26.4927 24.9805 26.518 24.8739 26.5567 24.7719L26.5585 24.7665Z" fill="#73A88C"/>
</svg>
