<svg width="24" height="24" viewBox="0 0 24 24" fill="none" xmlns="http://www.w3.org/2000/svg">
<path d="M12.0369 2.00005C6.57687 2.00005 2.12688 6.45005 2.12688 11.9101C2.12688 13.6601 2.58688 15.3601 3.44688 16.8601L2.04688 22.0001L7.29688 20.6201C8.74687 21.4101 10.3769 21.8301 12.0369 21.8301C17.4969 21.8301 21.9469 17.3801 21.9469 11.9201C21.9469 9.27005 20.9169 6.78005 19.0469 4.91005C18.1299 3.98416 17.0379 3.25002 15.8344 2.75042C14.6309 2.25081 13.34 1.99574 12.0369 2.00005ZM12.0469 3.67005C14.2469 3.67005 16.3069 4.53005 17.8669 6.09005C18.6323 6.85557 19.2391 7.76457 19.6527 8.76497C20.0662 9.76538 20.2783 10.8375 20.2769 11.9201C20.2769 16.4601 16.5769 20.1501 12.0369 20.1501C10.5569 20.1501 9.10688 19.7601 7.84688 19.0001L7.54688 18.8301L4.42687 19.6501L5.25688 16.6101L5.05687 16.2901C4.23142 14.9785 3.79454 13.4598 3.79688 11.9101C3.80687 7.37005 7.49687 3.67005 12.0469 3.67005ZM8.52687 7.33005C8.36687 7.33005 8.09687 7.39005 7.86687 7.64005C7.64687 7.89005 6.99687 8.50005 6.99687 9.71005C6.99687 10.9301 7.88687 12.1001 7.99687 12.2701C8.13687 12.4401 9.75688 14.9401 12.2469 16.0001C12.8369 16.2701 13.2969 16.4201 13.6569 16.5301C14.2469 16.7201 14.7869 16.6901 15.2169 16.6301C15.6969 16.5601 16.6769 16.0301 16.8869 15.4501C17.0969 14.8701 17.0969 14.3801 17.0369 14.2701C16.9669 14.1701 16.8069 14.1101 16.5569 14.0001C16.3069 13.8601 15.0869 13.2601 14.8669 13.1801C14.6369 13.1001 14.4969 13.0601 14.3069 13.3001C14.1469 13.5501 13.6669 14.1101 13.5269 14.2701C13.3769 14.4401 13.2369 14.4601 12.9969 14.3401C12.7369 14.2101 11.9369 13.9501 10.9969 13.1101C10.2569 12.4501 9.76687 11.6401 9.61687 11.3901C9.49687 11.1501 9.60687 11.0001 9.72687 10.8901C9.83687 10.7801 9.99688 10.6001 10.0969 10.4501C10.2269 10.3101 10.2669 10.2001 10.3469 10.0401C10.4269 9.87005 10.3869 9.73005 10.3269 9.61005C10.2669 9.50005 9.76688 8.26005 9.55688 7.77005C9.35688 7.29005 9.15687 7.35005 8.99687 7.34005C8.85687 7.34005 8.69687 7.33005 8.52687 7.33005Z" fill="#429E6E"/>
</svg>
